<?xml version="1.0" encoding="iso-8859-1"?>
<!-- Generator: Adobe Illustrator 23.0.3, SVG Export Plug-In . SVG Version: 6.00 Build 0)  -->
<svg version="1.1" id="Capa_1" xmlns="http://www.w3.org/2000/svg" xmlns:xlink="http://www.w3.org/1999/xlink" x="0px" y="0px"
	 viewBox="0 0 512 512" style="enable-background:new 0 0 512 512;" xml:space="preserve">
<path style="fill:#4557DA;" d="M505.857,109.701C459.581,87.78,402.706,69.163,353.675,65.95c-2.648-0.173-7.94-0.108-13.026,0.02
	c-6.598,0.164-11.575,6.209-10.331,12.692c2.522,13.136,5.57,26.23,8.983,39.261l-0.187-0.574
	c-68.662-9.715-134.465,9.815-193.611,46.015C86.357,199.566,38.476,252.23,1.091,310.634L0,311.553
	c11.307,47.507,110.332,132.344,115.675,134.602c26.803-54.661,58.209-107.544,98.784-152.93
	c40.473-45.271,90.558-82.959,147.816-103.168c6.698,18.075,13.898,35.897,21.491,53.313c3.386,7.765,14.075,8.555,18.773,1.505
	c41.957-62.943,79.46-95.701,105.526-117.156C514.157,122.704,512.988,113.078,505.857,109.701z"/>
<g>
</g>
<g>
</g>
<g>
</g>
<g>
</g>
<g>
</g>
<g>
</g>
<g>
</g>
<g>
</g>
<g>
</g>
<g>
</g>
<g>
</g>
<g>
</g>
<g>
</g>
<g>
</g>
<g>
</g>
</svg>
