<svg version="1.1" id="Layer_1" xmlns="http://www.w3.org/2000/svg" xmlns:xlink="http://www.w3.org/1999/xlink" x="0px" y="0px" viewBox="0 0 400 400" enable-background="new 0 0 400 400" xml:space="preserve" width="100%" height="100%" preserveAspectRatio="none"> <g> 
<path fill="#4557DA" d="M384.115,224.011c-0.14-7.372-3.46-13.503-8.332-18.894c-6.808-7.533-15.582-12.138-24.756-16.194 c-5.527-2.444-10.985-5.087-15.254-9.514c-3.854-3.997-4.216-8.586-1.144-13.182c1.106-1.655,2.464-3.078,3.911-4.434 c2.74-2.568,6.144-4.349,8.664-7.186c3.219-3.623,2.721-7.998-1.287-10.735c-2.566-1.753-5.445-2.161-8.495-2.085 c-3.995,0.099-7.763,1.523-11.721,1.801c-9.296,0.654-16.238-3.485-15.232-13.493c0.424-4.219,1.533-8.348,3.068-12.32 c0.829-2.147,1.498-4.348,2.224-6.531c0.151-0.256,5.712-9.769,5.504-18.638c0-0.005,0-0.01,0-0.016 c0-0.005-0.001-0.011-0.001-0.016c-0.073-2.902-0.763-5.733-2.467-8.147c-0.002-0.002-0.003-0.004-0.005-0.007 c-2.53-4.125-7.345-7.093-11.076-7.777c-6.536-1.199-12.684,0.162-18.511,3.116c-5.73,2.905-10.565,7.049-15.526,11.022 c-5.953,4.767-12.025,9.422-19.654,11.298c-4.486,1.103-8.879,0.956-12.949-1.824c-5.051-3.45-7.562-8.564-9.597-13.916 c-3.278-8.619-4.797-17.693-6.275-26.728c-1.443-8.818-3.369-17.438-7.734-25.355c-4.083-7.406-9.225-13.841-17.201-17.544 c-5.217-2.422-10.734-3.11-16.237-1.541c-6.778,1.934-11.118,6.767-14.123,12.897c-3.158,6.443-3.675,13.392-4.257,20.36 c-0.513,6.146,0.603,12.162,1.135,18.228c0.257,2.936,0.533,5.867,0.132,8.824c-0.351,2.59-1.607,4.403-4.083,5.425 c-2.506,1.035-5.056,0.788-7.573,0.253c-3.523-0.748-6.943-1.926-10.523-2.457c-4.045-0.6-7.52,0.296-10.283,3.448 c-1.273,1.453-2.469,3.007-3.249,4.7c-2.578,5.597-7.122,7.633-13.017,7.563c-5.246-0.062-10.357-1.083-15.45-2.154 c-6.056-1.274-12.083-2.735-18.35-2.063c-4.939,0.53-9.053,2.495-10.694,7.437c-1.484,4.467-1.272,9.056,0.347,13.519 c2.125,5.856,5.582,11.019,8.786,16.314c3.001,4.959,6.255,9.845,7.702,15.501c1.58,6.176,0.763,10.422-4.307,14.195 c-3.048,2.268-6.601,3.319-10.076,4.623c-4.565,1.713-5.836,3.767-5.146,7.43c0.385,2.044,1.667,3.693,3.288,5.044 c1.212,1.01,2.506,1.935,3.781,2.881c0.01,0.017,5.569,9.442,2.755,17.106c-2.968,3.343-6.744,5.797-10.454,8.342 c-19.531,5.413-27.701,22.617-27.701,22.617c-3.264,5.033-4.519,10.549-2.798,16.279c1.993,6.635,6.778,11.171,13.022,14.054 c7.957,3.674,16.448,4.852,25.173,4.326c4.793-0.289,9.576-0.674,14.386-0.503c2.532,0.09,4.992,0.609,7.281,1.577 c4.219,1.786,5.728,5.275,5.597,9.59c-0.131,4.318-0.308,8.617,0.577,12.907c0.858,4.155,3.841,7.193,8.091,7.964 c3.954,0.718,7.986,1.18,11.773,2.553c4.767,1.727,9.372,3.768,12.165,8.358c1.978,3.252,2.185,6.873,2.33,10.492 c0.165,4.109-0.265,8.228,0.136,12.336c0.446,4.564,1.665,8.814,5.112,12.159c6.694,6.497,14.773,6.594,23.056,4.408 c7.629-2.013,13.265-6.921,17.721-13.278c3.635-5.187,6.882-10.649,11.168-15.385c6.15-6.796,13.626-9.355,23.145-5.772 c5.036,1.895,8.754,5.349,12.054,9.36c4.88,5.932,8.265,12.809,12.431,19.192c3.752,5.749,8.098,10.834,14.948,13.142 c6.824,2.299,13.139,1.343,17.858-4.703c3.343-4.282,3.918-9.166,3.787-14.326c-0.153-6.046-1.616-11.949-1.783-17.997 c-0.197-7.086,1.679-13.193,7.57-17.717c2.966-2.278,6.3-3.861,9.742-5.272c3.179-1.303,6.484-2.354,9.354-4.299 c7.192-4.872,8.507-11.863,7.163-19.726c-0.497-2.909-1.083-5.787-1.022-8.761c0.136-6.728,4.318-11.037,11.121-11.689 c7.683-0.735,15.262,0.126,22.876,0.924c6.713,0.703,13.494,1.021,20.168-0.282C378.304,242.885,384.333,235.485,384.115,224.011z" data-color-group="0"></path> 
<path fill="#4557DA" d="M35.115,174.976c-5.033-4.74-11.352-6.164-17.866-6.508c-3.454,0.144-6.624,0.585-9.687,1.883 c-7.574,3.21-11,13.885-2.908,19.94c7.7,5.762,16.457,7.088,25.611,4.597C39.837,192.283,42.292,181.735,35.115,174.976z" data-color-group="0"></path>
 </g> </svg>