<svg version="1.1" id="Layer_1" xmlns="http://www.w3.org/2000/svg" xmlns:xlink="http://www.w3.org/1999/xlink" x="0px" y="0px" viewBox="0 0 400 130" enable-background="new 0 0 400 130" xml:space="preserve" width="100%" height="100%" preserveAspectRatio="none"> <path fill="#4557DA" d="M288.001,125.68c49.036-0.024,91.378-0.255,94.087-0.512c5.136-0.486,8.628-1.605,8.628-2.768 c0-0.372,0.688-1.096,1.53-1.607c1.792-1.091,1.601-4.27-0.38-6.303c-1.143-1.172-1.092-1.348,0.656-2.33 c1.041-0.585,2.506-1.203,3.254-1.377c1.615-0.369,4.857-4.717,4.114-5.511c-0.288-0.304-0.625-1.299-0.753-2.207 c-0.7-5.013-1.497-7.722-2.717-9.236c-0.426-0.527-0.772-1.584-0.772-2.346c0-0.763-0.37-1.385-0.823-1.385 c-0.45,0-0.833-0.561-0.848-1.242c-0.036-1.766-1.586-2.87-4.901-3.498c-2.688-0.509-2.918-0.735-3.574-3.506 c-0.586-2.47-0.484-3.044,0.613-3.457c0.724-0.271,1.317-0.733,1.317-1.028c0-0.296,0.976-1.574,2.17-2.847 c2.521-2.681,2.85-4.915,1.685-11.352c-0.925-5.108-2.312-6.384-7.668-7.06c-3.025-0.381-5.226-2.381-5.228-4.75 c-0.002-1.2,0.259-1.258,4.775-1.088l4.778,0.182l1.591-2.368c2.349-3.497,1.702-12.351-1.121-15.376 c-0.71-0.759-1.223-1.441-1.146-1.514c0.08-0.076-0.971-1.441-2.332-3.036c-1.361-1.596-3.063-3.811-3.787-4.926 c-1.271-1.966-1.46-2.03-6.349-2.274c-8.826-0.437-22.156-1.447-26.401-1.999c-9.913-1.293-58.669-6.067-73.544-7.205 c-3.39-0.259-7.088-0.611-8.218-0.78c-2.523-0.384-20.246-1.337-32.459-1.75c-4.969-0.168-11.809-0.507-15.199-0.754 c-3.39-0.247-7.458-0.449-9.039-0.449c-58.293-0.023-81.254-0.034-82.583-0.045c-0.906-0.009-9.039,0.215-18.078,0.498 c-46.913,1.461-44.709,1.556-42.959-1.822c0.906-1.738,0.416-5.77-0.792-6.583c-0.874-0.586-5.918,2.54-7.317,4.531 c-2.388,3.395-3.506,5.498-4.923,9.269l-1.53,4.063l-4.785,1.62c-3.656,1.239-5.068,2.078-5.986,3.552 c-1.799,2.891-2.995,10.268-1.964,12.09c0.511,0.9,0.557,1.761,0.119,2.131c-3.061,2.59,0.373,9.342,5.187,10.205 c1.797,0.323,2.443,0.743,2.308,1.503c-0.107,0.58-0.346,2.506-0.53,4.281c-0.189,1.772-0.661,3.441-1.053,3.704 c-0.392,0.263-4.775,0.99-9.741,1.609c-4.966,0.623-9.671,1.377-10.453,1.677c-0.787,0.3-2.114,0.544-2.957,0.544 c-2.925,0-5.211,2.86-6.596,8.249c-0.758,2.952-0.223,5.097,1.443,5.786c0.457,0.191,0.639,0.693,0.397,1.116 c-0.242,0.42-0.041,1.263,0.448,1.875c0.622,0.782,0.63,1.563,0.024,2.633c-0.712,1.254-0.567,1.789,0.821,3.049 c1.751,1.586,2.293,4.33,0.862,4.33c-0.453,0-0.823,0.374-0.823,0.828c0,0.831-4.661,1.207-11.233,0.909 C4.166,89.487,3.8,89.801,1.568,94.5v0.003c-1.898,3.992-2.065,6.249-0.54,7.275c0.557,0.374,1.015,0.976,1.015,1.338 c0,0.361,0.525,0.794,1.17,0.958c0.717,0.189,0.995,0.743,0.717,1.459c-0.259,0.667,0.114,1.572,0.889,2.148 c0.736,0.546,1.102,1.15,0.814,1.343c-0.501,0.337-1.068,2.195-1.385,4.525c-0.143,1.047,0.303,1.098,8.889,1.003 c4.971-0.054,14.955-0.472,22.188-0.925c25.924-1.629,25.701-1.626,26.289-0.216c1.693,4.057,4.557,7.587,6.158,7.587 c0.857,0,1.787,0.249,2.065,0.551c0.765,0.836,4.475,0.662,5.867-0.275c2.146-1.437,6.463,0.746,8.986,4.551 c0.656,0.987,1.697,1.793,2.312,1.793c0.615,0,1.644,0.529,2.281,1.172c1.075,1.088,1.896,1.172,11.809,1.207 c5.857,0.019,17.308-0.374,25.444-0.873C176.538,126.048,191.287,125.734,288.001,125.68z M242.808,39.083 c14.34,0.235,27.265,0.953,34.779,1.937c2.182,0.286,5.397,0.519,7.143,0.519c3.136,0,5.584,1.049,2.705,1.161 c-4.92,0.191-9.187-0.028-11.276-0.575c-1.317-0.345-6.494-0.734-11.504-0.863c-5.01-0.129-9.296-0.272-9.521-0.317 c-0.225-0.047-2.681-0.036-5.453,0.025c-2.775,0.062-5.267-0.132-5.54-0.428c-0.274-0.294-2.777-0.443-5.567-0.329 c-2.787,0.115-5.47-0.008-5.964-0.277c-0.491-0.267-1.635-0.62-2.538-0.785C229.168,38.981,234.899,38.954,242.808,39.083z M292.333,42.974c-0.273-0.182,0.213-0.314,1.08-0.289c0.956,0.025,1.15,0.157,0.494,0.333l0,0 C293.314,43.179,292.607,43.16,292.333,42.974z M91.611,122.719c0-0.303,0.368-0.706,0.821-0.894 c0.453-0.187,0.821-0.091,0.821,0.213c0,0.304-0.368,0.704-0.821,0.893C91.979,123.118,91.611,123.023,91.611,122.719z" data-color-group="0"></path> </svg>