<svg version="1.1" id="Layer_1" xmlns="http://www.w3.org/2000/svg" xmlns:xlink="http://www.w3.org/1999/xlink" x="0px" y="0px" viewBox="0 0 400 400" enable-background="new 0 0 400 400" xml:space="preserve" width="100%" height="100%" preserveAspectRatio="none"> <path fill="#4557DA" d="M398.234,305.047c-0.016-0.284-0.023-0.556-0.022-0.841c0.01-4.611-0.02-10.462-0.13-12.92 c-0.023-3.662-0.356-8.669-0.754-13.883c-0.04-0.527-0.052-1.059-0.033-1.588l0.645-18.193c0.017-0.483,0.008-0.974-0.024-1.456 c-3.34-49.402,0.603-69.764,0.184-119.438c-0.006-0.659,0.037-1.318,0.124-1.971c2.534-19.021,1.824-44.083,1.104-65.979 c-0.082-2.433-0.163-4.827-0.252-7.176c2.399-24.146-10.177-50.018-35.289-52.454c-2.28-0.52-4.605-0.957-6.951-1.336 c-11.731-1.897-23.986-2.353-34.078-4.418c-2.47-0.169-4.941-0.311-7.414-0.436c-9.894-0.502-19.829-0.754-29.84-1.131 c-2.627,0.025-5.251,0.049-7.871,0.064c-7.861,0.047-15.688,0.02-23.444-0.267c-2.533-0.028-5.069-0.058-7.607-0.091 c-12.69-0.165-25.446-0.398-38.344-0.738c-2.53-0.068-5.055-0.134-7.578-0.198c-15.136-0.384-30.187-0.679-45.077-0.583 c-2.449,0.176-4.897,0.393-7.343,0.657s-4.89,0.577-7.333,0.943c-2.648,0.339-5.287,0.729-7.921,1.179 c-2.366,0.351-4.717,0.707-7.061,1.061c-2.342,0.353-4.675,0.703-6.998,1.045c-2.397,0.434-4.793,0.878-7.191,1.33 C109.219,6.63,106.703,7,104.182,7.33c-5.042,0.66-10.103,1.163-15.198,1.406c-2.425,0.071-4.852,0.096-7.282,0.088 C64.691,8.765,47.549,7.077,30.374,8.308c-2.015,0.583-3.944,1.357-5.796,2.3c-9.25,4.71-16.586,13.622-20.864,23.911 c-0.568,1.669-1.031,3.456-1.405,5.372c-0.454,2.579-0.729,5.395-1.029,8.394c-0.152,13.97-0.152,29.062-1.203,43.107 c-0.059,3.831-0.088,7.664-0.071,11.457c0.049,11.38,0.505,22.401,1.772,31.911c0.087,0.653,0.13,1.312,0.124,1.971 c-0.419,49.674,3.524,70.036,0.184,119.438c-0.033,0.482-0.041,0.973-0.024,1.456l0.645,18.192c0.019,0.529,0.007,1.061-0.033,1.588 c-0.398,5.214-0.731,10.22-0.754,13.882c-0.11,2.458-0.141,8.31-0.13,12.921c0.001,0.285-0.006,0.556-0.022,0.841 c-0.879,15.503-3.506,40.818,0.045,59.652c0.118,0.624,0.193,1.255,0.226,1.89c1.408,26.828,15.301,36.541,81.823,32.546 c4.418-0.265,8.841-0.499,13.266-0.716c0.43-0.021,0.854-0.023,1.284-0.003c13.617,0.631,30.992,2.218,42.337,0.866 c0.277-0.033,0.548-0.058,0.826-0.072c19.32-0.992,38.825-1.713,58.425-2.11c19.6,0.397,39.105,1.118,58.425,2.11 c0.278,0.014,0.549,0.039,0.826,0.072c11.345,1.352,28.719-0.235,42.337-0.866c0.43-0.02,0.854-0.018,1.284,0.003 c4.425,0.218,8.848,0.451,13.266,0.716c66.522,3.994,80.415-5.719,81.824-32.546c0.033-0.635,0.109-1.266,0.226-1.89 C401.74,345.866,399.113,320.55,398.234,305.047z" data-color-group="0"></path> </svg>