<?xml version="1.0" encoding="iso-8859-1"?>
<!-- Generator: Adobe Illustrator 23.0.3, SVG Export Plug-In . SVG Version: 6.00 Build 0)  -->
<svg version="1.1" id="Capa_1" xmlns="http://www.w3.org/2000/svg" xmlns:xlink="http://www.w3.org/1999/xlink" x="0px" y="0px"
	 viewBox="0 0 512 512" style="enable-background:new 0 0 512 512;" xml:space="preserve">
<path style="fill:#4557DA" d="M452.033,400.974c-30.46,0-56.522-23.139-59.539-54.084c-7.908-81.13-76.129-116.807-140.134-116.07
	c-57.26,0.612-126.382,31.044-132.747,114.796c-2.506,32.982-31.285,57.691-64.256,55.182
	c-32.982-2.506-57.688-31.275-55.182-64.256C5.439,267.248,35.436,208.79,86.923,167.49c44.56-35.746,102.859-55.792,164.158-56.447
	c62.212-0.677,121.949,18.568,168.329,54.156c53.543,41.081,85.46,99.89,92.303,170.067c3.209,32.921-20.877,62.21-53.798,65.421
	C455.94,400.88,453.976,400.974,452.033,400.974z"/>
<g>
</g>
<g>
</g>
<g>
</g>
<g>
</g>
<g>
</g>
<g>
</g>
<g>
</g>
<g>
</g>
<g>
</g>
<g>
</g>
<g>
</g>
<g>
</g>
<g>
</g>
<g>
</g>
<g>
</g>
</svg>
