<?xml version="1.0" encoding="iso-8859-1"?>
<!-- Generator: Adobe Illustrator 23.0.3, SVG Export Plug-In . SVG Version: 6.00 Build 0)  -->
<svg version="1.1" id="Capa_1" xmlns="http://www.w3.org/2000/svg" xmlns:xlink="http://www.w3.org/1999/xlink" x="0px" y="0px"
	 viewBox="0 0 512 512" style="enable-background:new 0 0 512 512;" xml:space="preserve">
<g>
	<path style="fill:#4557DA" d="M510.816,122.258c-6.081-26.591-34.188-42.072-60.811-48.009
		c-80.662-17.988-173.984,32.571-207.497,108.166c-5.928-83.2-78.78-160.532-161.716-169.819
		c-27.107-3.035-58.72,2.473-73.11,25.646C-3.16,55.7-1.004,78.264,4.832,97.967c7.892,26.64,21.637,51.106,35.249,75.327
		c58.829,104.681,117.788,210.934,149.048,326.873c67.234-99.492,157.517-180.824,247.165-260.711
		c20.744-18.485,41.692-37.158,57.811-59.788C506.027,162.93,515.396,142.29,510.816,122.258z"/>
</g>
<g>
</g>
<g>
</g>
<g>
</g>
<g>
</g>
<g>
</g>
<g>
</g>
<g>
</g>
<g>
</g>
<g>
</g>
<g>
</g>
<g>
</g>
<g>
</g>
<g>
</g>
<g>
</g>
<g>
</g>
</svg>
