<?xml version="1.0" encoding="iso-8859-1"?>
<!-- Generator: Adobe Illustrator 23.0.3, SVG Export Plug-In . SVG Version: 6.00 Build 0)  -->
<svg version="1.1" id="Capa_1" xmlns="http://www.w3.org/2000/svg" xmlns:xlink="http://www.w3.org/1999/xlink" x="0px" y="0px"
	 viewBox="0 0 512 512" style="enable-background:new 0 0 512 512;" xml:space="preserve">
<g>
	<path style="fill:#4557DA;" d="M266.765,474.476c46.414,21.688,37.759,8.851,65.9-33.262c22.524-33.707,51.927-62.533,78.78-92.695
		c63.061-70.831,185.26-299.518,10.207-320.524c-47.248-5.67-94.95,17.317-127.004,52.489
		c-32.054,35.172-50.072,81.151-60.007,127.69c-11.042-37.782-22.496-76.416-45.733-108.188
		C165.67,68.214,127.896,44.137,88.738,48.148C31.392,54.022-5.373,119.03,0.642,176.362c6.014,57.326,43.008,106.43,82.606,148.318
		C132.327,376.597,201.417,443.942,266.765,474.476z"/>
</g>
<g>
</g>
<g>
</g>
<g>
</g>
<g>
</g>
<g>
</g>
<g>
</g>
<g>
</g>
<g>
</g>
<g>
</g>
<g>
</g>
<g>
</g>
<g>
</g>
<g>
</g>
<g>
</g>
<g>
</g>
</svg>
