<?xml version="1.0" encoding="iso-8859-1"?>
<!-- Generator: Adobe Illustrator 23.0.3, SVG Export Plug-In . SVG Version: 6.00 Build 0)  -->
<svg version="1.1" id="Capa_1" xmlns="http://www.w3.org/2000/svg" xmlns:xlink="http://www.w3.org/1999/xlink" x="0px" y="0px"
	 viewBox="0 0 512 512" style="enable-background:new 0 0 512 512;" xml:space="preserve">
<g>
	<path style="fill:#4557DA;" d="M392.747,69.098c-70.6-4.912-131.815,48.339-136.727,118.939l-0.039-0.003
		c4.911-70.6-48.339-131.815-118.939-136.727C66.442,46.394,5.227,99.645,0.314,170.246c-1.383,19.875,1.845,39.005,8.771,56.345
		c0.003,0.008,29.797,93.606,227.904,234.414c0.046-0.459,0.057-0.458,0.039,0.003C452.725,348.99,495.194,260.42,495.197,260.412
		c9.259-16.214,15.106-34.713,16.488-54.588C516.598,135.225,463.347,74.009,392.747,69.098z"/>
</g>
<g>
</g>
<g>
</g>
<g>
</g>
<g>
</g>
<g>
</g>
<g>
</g>
<g>
</g>
<g>
</g>
<g>
</g>
<g>
</g>
<g>
</g>
<g>
</g>
<g>
</g>
<g>
</g>
<g>
</g>
</svg>
