<svg xmlns="http://www.w3.org/2000/svg" viewBox="0 0 500 500"><path fill="#4557DA"  d="M342.2 480.6c-.6 0-1.2 0-1.8-.1-3.7-.5-6.7-2.7-8.8-6.2-9.3-16.1 22.3-55.7 75.4-118.9 20.5-24.4 41.7-49.7 56.1-70 19.9-27.9 20.1-36.9 18.4-39.7-1.2-2-2.9-3.2-5.4-3.7-24.7-4.7-100.8 55.3-167.8 108.3-88.2 69.5-148 114.8-174.3 109.7-4.8-.9-8.5-3.5-10.9-7.6-14.3-24.7 47.6-78.1 151.2-162.9 40.2-32.9 81.8-67 110.7-95 38.1-36.9 42-51.8 38.6-57.7-1.6-2.8-3.8-4.3-7-4.9-25.3-4.5-94.1 52.5-154.7 102.8-64.9 53.8-126.4 104.8-157.1 104.8-1.5 0-2.8-.1-4.2-.4-5.5-1-9.7-3.9-12.5-8.7-11.6-20.1 34-66 110.5-139.4 29.6-28.4 60.2-57.7 81.4-81.7 29.2-33 29.9-44.2 27.8-48-1.2-2.1-2.9-3.3-5.4-3.7-21.7-4-82.8 46.2-136.8 90.4-71.3 58.4-119.7 96.3-143.3 92-4.7-.9-8.5-3.5-10.9-7.6-8-13.9 15.2-49.4 53.8-106.2 15-22 30.5-44.8 40.9-63.1 14.8-25.8 13.8-33 12.7-34.9-.5-.9-.9-.9-1-.9-.3 0-2.7-.2-8 5.2-1.6 1.6-4.1 1.6-5.7 0-1.6-1.6-1.6-4.1 0-5.7 5.6-5.6 10.4-8 14.7-7.5 2 .2 4.8 1.3 6.9 4.8C134 38 110.6 73.6 71.9 130.7c-14.9 21.9-30.4 44.6-40.8 62.8-14.8 25.8-13.8 33-12.7 34.9 1.2 2.1 2.9 3.3 5.4 3.7 21.7 4 82.8-46.2 136.8-90.4 71.3-58.4 119.7-96.3 143.3-92 4.7.9 8.5 3.5 10.9 7.6 11.6 20.1-34 66-110.5 139.4-29.6 28.4-60.2 57.7-81.4 81.7-29.2 33-29.9 44.2-27.8 48 1.6 2.8 3.8 4.3 7 4.9 25.3 4.5 94.1-52.5 154.7-102.8 68-56.4 132.3-109.7 161.2-104.5 5.5 1 9.7 3.9 12.5 8.7 14.3 24.7-47.6 78.1-151.2 162.9-40.2 32.9-81.8 67-110.7 95-38.1 36.9-42 51.8-38.6 57.7 1.2 2 2.9 3.2 5.4 3.7 24.8 4.7 100.8-55.3 167.8-108.3 88.2-69.7 147.9-114.9 174.3-109.9 4.8.9 8.5 3.5 10.9 7.6 9.3 16.1-22.3 55.7-75.4 118.9-20.5 24.4-41.7 49.7-56.1 70-19.9 27.9-20.1 36.9-18.4 39.7 1 1.8 2.1 2.1 3 2.2 9.1 1.3 30.3-19.3 47.3-35.8 22-21.3 41.1-39.7 54-37.9 3.7.5 6.7 2.7 8.8 6.2 1.1 1.9.4 4.4-1.5 5.5-1.9 1.1-4.4.4-5.5-1.5-1-1.8-2.1-2.1-3-2.2-9-1.3-30.3 19.3-47.3 35.8-21 20.6-39.3 38.3-52.1 38.3z"/></svg>
