<svg xmlns="http://www.w3.org/2000/svg" viewBox="0 0 500 573"><path fill="#4557DA" d="M183.6 559.1c-5.2 0-9.7-1.1-13-3.7-4.7-3.7-6.6-10.1-5.7-18.9 2.9-27.3 79.6-40.6 160.8-54.7 67.7-11.8 144.5-25.1 146.6-45.2.6-5.7-1-10.4-4.8-14.3-22.7-22.8-116.1-13.7-206.5-4.9-96.8 9.4-188.2 18.3-213.1-6.8-5.2-5.2-7.4-11.7-6.6-19.3 4.7-44.6 118.9-51.6 229.3-58.4 44.2-2.7 85.9-5.3 117.2-10.2 32.9-5.2 50.1-12.5 51.1-21.9.8-7.5-1.2-13.5-6-18.2-24-23.3-112.5-11.6-198.1-.3-91.8 12.1-178.5 23.6-204.8-2-6.2-6-8.8-13.9-7.8-23.3 4.3-41.3 110.9-44.2 223.7-47.2 51.6-1.4 105-2.8 144.5-8.4 43-6.1 64.7-16.2 66.2-31 .3-3.1-.6-5.6-2.7-7.9-16.6-17.2-98.1-11.3-176.8-5.6-90.9 6.5-184.8 13.3-208.4-11-4.5-4.7-6.5-10.4-5.8-16.9 1.7-16.2 39-29 100.2-48.2C219 63.3 282.3 43.4 285.7 20.7c-2.2-.5-8.4.6-12.7 1.4-9 1.6-17.5 3.1-21.3-.4-1-.9-2.1-2.6-1.8-5.3.2-1.5 1.5-2.7 3.1-2.5 1.5.2 2.7 1.5 2.5 3.1v.6c1.7 1.6 11.3-.1 16.4-1 9.5-1.7 15-2.5 17.9.1 1.1 1 1.6 2.5 1.5 4.1-2.8 26.6-65.7 46.3-126.6 65.4-25.2 7.9-49.1 15.4-67 22.9-18.8 7.8-28.6 14.7-29.2 20.5-.5 4.9.9 8.9 4.2 12.4 21.7 22.4 118.5 15.5 203.9 9.3 83.7-6 162.8-11.7 181.3 7.3 3.3 3.5 4.8 7.6 4.3 12.4-4.1 38.8-107.1 41.5-216.2 44.4-53.1 1.4-108 2.9-149.1 8.8-44.9 6.5-67.5 17.4-69.2 33.3-.8 7.8 1.2 13.9 6.2 18.7 24.4 23.7 113.7 11.9 200.1.5 91-12 176.9-23.4 202.8 1.8 6 5.9 8.6 13.6 7.7 22.8-1.3 12.7-18.5 21-55.8 26.9-31.6 5-73.4 7.5-117.7 10.3-53.2 3.3-108.2 6.6-151 14.5-47.3 8.7-71.2 21.4-73 38.9-.6 5.9 1 10.7 5 14.7 23.1 23.3 117.4 14.1 208.6 5.2 95.9-9.3 186.5-18.2 211.1 6.6 5 5.1 7.2 11.4 6.4 18.8-2.6 24.4-71.5 36.3-151.3 50.2-72.1 12.5-153.7 26.7-156.2 49.7-.7 6.9.4 11.5 3.6 13.9 8.7 6.9 33-1.8 54.3-9.5 23.9-8.5 46.4-16.6 56.7-8.5 4.2 3.3 5.9 8.9 5.1 16.6-.2 1.5-1.5 2.7-3.1 2.5-1.5-.2-2.7-1.5-2.5-3.1.6-5.8-.4-9.6-3-11.6-7.8-6.1-30.9 2.1-51.3 9.4-17.6 6.3-34.4 12.3-46.8 12.3z"/></svg>
