<svg xmlns="http://www.w3.org/2000/svg" viewBox="0 0 66.38 66.38"><defs><style>.cls-1{fill:#4557DA}</style></defs><g id="Capa_2" data-name="Capa 2"><g id="Capa_2-2" data-name="Capa 2"><path class="cls-1" d="M61.44,7.38l-2.69,2.69L56.31,7.63,59,4.94Zm4.94-4.94L63.69,5.13,61.25,2.69,63.94,0ZM46.06,22.75l-2.68,2.69L40.94,23l2.68-2.69ZM35.82,33l-2.69,2.69-2.44-2.44,2.69-2.69ZM20.45,48.37l-2.69,2.69-2.44-2.44L18,45.93Zm5.27-5.27L23,45.79l-2.44-2.44,2.69-2.69ZM30.81,38l-2.68,2.69-2.44-2.44,2.68-2.69ZM41,27.84,38.3,30.52l-2.44-2.44,2.68-2.68ZM51.2,17.62,48.51,20.3l-2.44-2.44,2.69-2.68Zm5.15-5.15-2.69,2.68-2.44-2.44L53.91,10ZM10.2,58.62,7.51,61.3,5.07,58.86l2.69-2.68Zm5.29-5.29L12.8,56l-2.44-2.44,2.69-2.68ZM5.13,63.69,2.44,66.38,0,63.94l2.69-2.69Z"/></g></g></svg>