<?xml version="1.0" encoding="UTF-8"?>
<svg version="1.1" viewBox="0 0 300 79.884" xmlns="http://www.w3.org/2000/svg">
 <defs>
  <clipPath id="a">
   <path d="m0 55.435h216v-55.375h-216v55.375z"/>
  </clipPath>
 </defs>
 <g transform="translate(-428.71 -460.52)">
  <g transform="matrix(1.3704 0 0 -1.3704 430.71 538.48)">
   <g transform="translate(165.27 21.91)">
    <path d="m0 0c-0.738-0.465-1.518-0.863-2.335-1.202-1.098-0.443-2.139-0.675-3.102-0.675-1.478 0-2.614 0.209-3.382 0.656-0.769 0.424-1.172 1.161-1.159 2.216 0 1.218 0.281 2.163 0.863 2.904 0.586 0.713 1.457 1.287 2.537 1.715 1.074 0.364 2.395 0.664 3.92 0.879 1.356 0.171 4.037 0.48 4.38 0.482 0.343 3e-3 0.571 0.192 0.418-0.722-0.068-0.397-0.842-3.575-1.197-5.02-0.103-0.433-0.679-1.064-0.943-1.233zm10.522 22.336c-2.258 1.26-5.79 1.897-10.623 1.897-2.39 0-4.792-0.192-7.202-0.566-1.769-0.271-1.951-0.316-3.05-0.555-2.261-0.492-2.61-2.756-2.61-2.756l-0.726-2.986c-0.412-1.91 0.676-1.831 1.161-1.683 0.987 0.298 1.522 0.594 3.536 1.05 1.925 0.437 3.959 0.764 5.582 0.751 2.38 0 4.19-0.261 5.393-0.763 1.204-0.525 1.8-1.419 1.8-2.698 4e-3 -0.304 0.012-0.591-0.098-0.842-0.099-0.234-0.289-0.46-0.858-0.537-3.397-0.202-5.835-0.512-8.771-0.94-2.897-0.408-5.432-1.107-7.551-2.075-2.259-1.002-3.949-2.343-5.114-4.042-1.134-1.707-1.704-3.774-1.707-6.209 0-2.301 0.827-4.178 2.427-5.635 1.619-1.438 3.725-2.15 6.273-2.15 1.592 0.011 2.838 0.126 3.731 0.349 0.884 0.223 1.848 0.54 2.866 0.981 0.761 0.318 1.582 0.778 2.449 1.355 0.868 0.579 1.469 0.99 2.24 1.495l0.028-0.048-0.217-0.957c-1e-3 -9e-3 -0.014-0.014-0.014-0.023l7e-3 -0.018c-0.248-1.153 0.445-2.112 1.587-2.225l0.014-0.02h0.101l4e-3 -5e-3c0.758 0 3.36 1e-3 4.576 5e-3h0.849c0.056 0 0.062 0.017 0.084 0.03 1.166 0.143 2.284 1.093 2.547 2.233l4.343 18.745c0.1 0.441 0.179 0.95 0.226 1.536 0.054 0.592 0.118 1.079 0.099 1.431 0.01 2.653-1.13 4.614-3.382 5.875" fill="#369"/>
   </g>
   <g clip-path="url(#a)">
    <g transform="translate(101.08 45.728)">
     <path d="m0 0c-1.274 0-2.945-1.031-3.736-2.277 0 0-8.522-14.61-9.359-16.07-0.455-0.785-0.916-0.286-0.993 6e-3 -0.062 0.355-2.641 15.968-2.641 15.968-0.29 1.257-1.603 2.336-3.245 2.331l-5.314-8e-3c-1.281 0-2.08-1.026-1.795-2.266 0 0 4.062-23.024 4.854-28.439 0.395-2.995-0.041-3.526-0.041-3.526l-5.266-9.182c-0.771-1.245-0.349-2.265 0.926-2.265l6.158 5e-3c1.275 0 2.964 1.015 3.723 2.262l23.69 40.067s2.266 3.423 0.176 3.394c-1.425-0.02-7.137 0-7.137 0" fill="#1c3664"/>
    </g>
    <g transform="translate(39.137,49.474)">
     <path d="m0 0c-0.739 1.442-1.847 2.613-3.261 3.497-1.467 0.905-3.173 1.529-5.162 1.905-2.001 0.359-4.338 0.535-7.019 0.559l-12.414-9e-3c-1.29-0.015-2.554-1.027-2.852-2.267l-8.371-36.391c-0.288-1.245 0.518-2.274 1.803-2.274h5.947c1.286 0 2.56 1.002 2.849 2.274l2.049 8.831c0.274 1.235 1.545 2.257 2.834 2.257h1.7c7.273 7e-3 12.914 1.495 16.968 4.473 4.048 2.972 6.073 6.912 6.063 11.784 0.01 2.14-0.361 3.931-1.134 5.361m-12.841-11.89c-1.793-1.311-4.278-1.968-7.504-1.968h-1.458c-1.285 0-2.096 1.019-1.813 2.271l1.79 7.714c0.273 1.243 1.555 2.274 2.84 2.262l1.946 0.012c2.273 0 4.001-0.389 5.167-1.163 1.149-0.753 1.733-1.942 1.713-3.541 0.034-2.408-0.879-4.272-2.681-5.587" fill="#1c3664"/>
    </g>
   </g>
   <g transform="translate(147.11 49.341)">
    <path d="m0 0c-0.741 1.442-1.86 2.603-3.275 3.507-1.451 0.902-3.175 1.531-5.171 1.898-1.974 0.346-4.321 0.544-6.995 0.55l-12.442-6e-3c-1.281-0.022-2.538-1.028-2.834-2.267l-8.365-36.402c-0.305-1.237 0.527-2.268 1.785-2.261l5.97 0.011c1.266-0.011 2.556 1.013 2.855 2.25l2.018 8.834c0.283 1.238 1.57 2.275 2.857 2.257h1.697c7.282 0 12.928 1.496 16.971 4.474 4.033 2.993 6.063 6.919 6.063 11.802-0.013 2.132-0.376 3.928-1.134 5.353m-12.836-11.906c-1.782-1.296-4.283-1.946-7.501-1.946h-1.48c-1.28-0.015-2.107 1.02-1.803 2.261l1.784 7.726c0.266 1.222 1.565 2.262 2.827 2.252l1.955 0.01c2.282-0.01 3.989-0.392 5.168-1.151 1.159-0.768 1.721-1.959 1.73-3.546 5e-3 -2.419-0.89-4.28-2.68-5.606" fill="#369"/>
   </g>
   <g transform="translate(57.28,21.938)">
    <path d="m0 0c-0.738-0.465-1.517-0.861-2.334-1.201-1.098-0.441-2.144-0.675-3.104-0.675-1.474 0-2.613 0.21-3.382 0.655-0.768 0.425-1.173 1.162-1.16 2.218 0 1.215 0.284 2.163 0.865 2.903 0.587 0.714 1.454 1.289 2.534 1.716 1.077 0.366 2.402 0.662 3.922 0.877 1.356 0.171 4.04 0.479 4.382 0.484 0.34 1e-3 0.569 0.192 0.416-0.722-0.066-0.397-0.841-3.577-1.196-5.021-0.107-0.435-0.683-1.066-0.943-1.234zm10.522 22.337c-2.258 1.26-5.789 1.896-10.622 1.896-2.391 0-4.792-0.19-7.203-0.565-1.772-0.269-1.95-0.315-3.05-0.554-2.262-0.494-2.61-2.756-2.61-2.756l-0.726-2.988c-0.411-1.909 0.678-1.83 1.161-1.682 0.985 0.298 1.523 0.593 3.537 1.051 1.922 0.435 3.959 0.761 5.58 0.75 2.382 0 4.19-0.26 5.393-0.762 1.205-0.525 1.798-1.421 1.798-2.699 8e-3 -0.304 0.014-0.592-0.093-0.841-0.101-0.236-0.293-0.461-0.862-0.537-3.393-0.205-5.83-0.514-8.771-0.942-2.897-0.408-5.431-1.107-7.551-2.074-2.259-1.002-3.947-2.345-5.11-4.043-1.138-1.706-1.707-3.773-1.709-6.209 0-2.3 0.828-4.178 2.426-5.634 1.62-1.438 3.724-2.151 6.272-2.151 1.593 0.011 2.838 0.128 3.734 0.349 0.883 0.225 1.848 0.54 2.862 0.981 0.764 0.318 1.583 0.78 2.451 1.356 0.866 0.578 1.47 0.989 2.244 1.494l0.024-0.047-0.217-0.956c-2e-3 -9e-3 -0.014-0.015-0.014-0.026l9e-3 -0.015c-0.248-1.156 0.443-2.114 1.586-2.225l0.014-0.022h0.1l3e-3 -7e-3c0.76 0 3.363 4e-3 4.576 7e-3h0.85c0.057 0 0.065 0.019 0.083 0.031 1.169 0.147 2.283 1.095 2.549 2.231l4.343 18.747c0.098 0.44 0.178 0.949 0.222 1.534 0.058 0.595 0.121 1.08 0.104 1.431 0.01 2.655-1.132 4.616-3.383 5.877" fill="#1c3664"/>
   </g>
   <g transform="translate(196.3,54.997)">
    <path d="m0 0h-5.321c-3e-3 0-6e-3 -1e-3 -8e-3 -1e-3l-3e-3 1e-3c-1.218 0-2.454-0.933-2.799-2.12-0.014-0.048-0.038-0.094-0.049-0.144 0 0-0.127-0.579-0.347-1.58l-7.309-33.13c-0.169-0.749-0.282-1.237-0.316-1.364l0.014-0.018c-0.253-1.158 0.443-2.116 1.586-2.223l0.015-0.022h5.523c1.21 0 2.438 0.924 2.794 2.096 0.017 0.057 0.044 0.11 0.057 0.167l7.973 36.076-0.012 4e-3c0.271 1.234-0.524 2.258-1.798 2.258" fill="#369"/>
   </g>
   <g transform="translate(206.38 47.652)">
    <path d="m0 0c-0.181-0.048-0.379-0.088-0.596-0.119-0.216-0.03-0.41-0.047-0.577-0.047-0.594 0-1.042 0.16-1.349 0.477-0.308 0.318-0.461 0.828-0.461 1.529v3.077h-0.659v0.82h0.659v1.663h0.973v-1.663h2.01v-0.82h-2.01v-2.637c0-0.303 9e-3 -0.541 0.021-0.712 0.015-0.172 0.063-0.331 0.146-0.479 0.075-0.139 0.179-0.239 0.313-0.303 0.134-0.065 0.337-0.097 0.61-0.097 0.158 0 0.324 0.024 0.498 0.071 0.171 0.046 0.296 0.085 0.372 0.116h0.05v-0.876" fill="#369"/>
   </g>
   <g transform="translate(216,47.601)">
    <path d="m0 0h-0.973v3.296c0 0.248-0.012 0.489-0.035 0.72-0.023 0.232-0.072 0.416-0.143 0.555-0.08 0.148-0.193 0.261-0.342 0.336-0.149 0.076-0.362 0.114-0.642 0.114-0.274 0-0.545-0.068-0.819-0.205-0.273-0.136-0.545-0.309-0.818-0.52 0.01-0.08 0.018-0.172 0.025-0.278 8e-3 -0.105 0.011-0.209 0.011-0.313v-3.705h-0.973v3.296c0 0.256-0.013 0.498-0.035 0.728s-0.071 0.413-0.142 0.551c-0.081 0.149-0.195 0.26-0.344 0.335-0.148 0.074-0.362 0.111-0.642 0.111-0.266 0-0.531-0.066-0.8-0.197-0.268-0.131-0.534-0.298-0.801-0.502v-4.322h-0.975v5.788h0.975v-0.642c0.305 0.252 0.608 0.449 0.91 0.591 0.304 0.14 0.623 0.212 0.966 0.212 0.393 0 0.728-0.083 1.003-0.248 0.274-0.167 0.479-0.396 0.614-0.69 0.393 0.332 0.753 0.572 1.078 0.718 0.324 0.146 0.671 0.22 1.041 0.22 0.636 0 1.105-0.193 1.407-0.577 0.302-0.386 0.454-0.924 0.454-1.615v-3.757" fill="#369"/>
   </g>
  </g>
 </g>
</svg>
