<?xml version="1.0" encoding="iso-8859-1"?>
<!-- Generator: Adobe Illustrator 23.0.3, SVG Export Plug-In . SVG Version: 6.00 Build 0)  -->
<svg version="1.1" id="Capa_1" xmlns="http://www.w3.org/2000/svg" xmlns:xlink="http://www.w3.org/1999/xlink" x="0px" y="0px"
	 viewBox="0 0 512 512" style="enable-background:new 0 0 512 512;" xml:space="preserve">
<path style="fill:#4557DA" d="M294.737,28.971L294.737,28.971c8.02,27.223,40.879,37.9,63.368,20.59l0,0
	c31.911-24.562,76.176,7.598,62.678,45.538l0,0c-9.513,26.738,10.795,54.689,39.164,53.904h0
	c40.254-1.114,57.162,50.923,23.941,73.682l0,0c-23.412,16.04-23.412,50.59,0,66.629l0,0c33.221,22.76,16.313,74.796-23.941,73.682
	l0,0c-28.369-0.785-48.677,27.166-39.164,53.904l0,0c13.499,37.94-30.766,70.1-62.678,45.538l0,0
	c-22.49-17.31-55.348-6.633-63.368,20.59l0,0c-11.38,38.628-66.094,38.628-77.474,0l0,0c-8.02-27.223-40.879-37.9-63.368-20.59l0,0
	c-31.912,24.562-76.176-7.598-62.678-45.538l0,0c9.513-26.738-10.795-54.689-39.164-53.904l0,0
	c-40.254,1.114-57.162-50.923-23.941-73.682l0,0c23.412-16.04,23.412-50.59,0-66.629l0,0c-33.221-22.76-16.313-74.796,23.941-73.682
	h0c28.369,0.785,48.677-27.166,39.164-53.904l0,0c-13.499-37.94,30.766-70.1,62.678-45.538l0,0
	c22.489,17.31,55.348,6.633,63.368-20.59l0,0C228.643-9.657,283.357-9.657,294.737,28.971z"/>
<g>
</g>
<g>
</g>
<g>
</g>
<g>
</g>
<g>
</g>
<g>
</g>
<g>
</g>
<g>
</g>
<g>
</g>
<g>
</g>
<g>
</g>
<g>
</g>
<g>
</g>
<g>
</g>
<g>
</g>
</svg>
