<?xml version="1.0" encoding="iso-8859-1"?>
<!-- Generator: Adobe Illustrator 23.0.3, SVG Export Plug-In . SVG Version: 6.00 Build 0)  -->
<svg version="1.1" id="Capa_1" xmlns="http://www.w3.org/2000/svg" xmlns:xlink="http://www.w3.org/1999/xlink" x="0px" y="0px"
	 viewBox="0 0 512.416 512.416" style="enable-background:new 0 0 512.416 512.416;" xml:space="preserve">
<path style="fill:#4557DA" d="M512.207,201.557c-10.607,33.899-6.418,73.94-0.491,114.395c3.125,21.332-9.887,38.09-25.478,51.272
	c-21.503,18.18-37.894,39.699-49.328,65.471c-11.877,26.77-33.129,41.063-62.208,43.688c-27.776,2.507-53.764,9.963-78.116,24.349
	c-26.543,15.68-54.422,15.551-81.048-0.218c-23.505-13.92-48.619-21.808-75.596-23.81c-31.423-2.332-53.458-18.136-65.95-46.549
	c-10.672-24.271-26.061-44.389-46.283-61.3c-24.101-20.153-32.31-45.16-24.381-76.42c6.439-25.387,5.451-51.49-0.724-77.064
	c-6.504-26.936,0.155-49.863,21.015-67.738c23.329-19.991,41.443-43.44,53.868-71.657c12.156-27.609,36.242-38.506,64.16-40.9
	c26.348-2.259,50.573-9.815,73.212-22.987C242.68-4.1,270.162-4.013,297.99,12.251c22.599,13.208,46.892,20.736,73.258,22.856
	c30.359,2.44,54.241,16.152,66.511,45.725c10.493,25.288,27.101,45.734,47.68,63.47C500.87,157.601,512.312,173.501,512.207,201.557
	z"/>
<g>
</g>
<g>
</g>
<g>
</g>
<g>
</g>
<g>
</g>
<g>
</g>
<g>
</g>
<g>
</g>
<g>
</g>
<g>
</g>
<g>
</g>
<g>
</g>
<g>
</g>
<g>
</g>
<g>
</g>
</svg>
