<?xml version="1.0" encoding="utf-8"?>
<!-- Generator: Adobe Illustrator 24.3.0, SVG Export Plug-In . SVG Version: 6.00 Build 0)  -->
<svg version="1.1" id="Capa_1" xmlns="http://www.w3.org/2000/svg" xmlns:xlink="http://www.w3.org/1999/xlink" x="0px" y="0px"
	 width="400px" height="260px" viewBox="0 0 400 260" style="enable-background:new 0 0 400 260;" xml:space="preserve" fill="#4557DA" >
<polygon points="160.1,115.426 303.534,94.663 267.336,89.644 123.902,110.407 "/>
<polygon points="96.457,124.497 96.457,124.639 96.956,124.567 "/>
<polygon points="133.183,170.281 276.098,149.593 239.871,144.532 96.956,165.22 "/>
<polygon points="292.343,1.142 286.448,23.994 263.597,29.888 280.756,47.048 330.979,39.778 "/>
<polygon points="330.979,39.778 280.756,47.048 123.902,69.753 123.902,110.407 267.336,89.644 330.979,80.431 "/>
<polygon points="96.956,124.567 96.457,124.639 96.457,165.151 96.457,165.292 96.956,165.22 239.871,144.532 303.534,135.317 
	303.534,94.663 160.1,115.426 "/>
<polygon points="107.657,258.858 111.432,233.887 136.403,230.112 119.244,212.952 69.021,220.222 "/>
<polygon points="69.021,179.569 69.021,220.222 119.244,212.952 276.098,190.247 276.098,149.593 133.183,170.281 "/>
</svg>
