<?xml version="1.0" encoding="utf-8"?>
<!-- Generator: Adobe Illustrator 24.3.0, SVG Export Plug-In . SVG Version: 6.00 Build 0)  -->
<svg version="1.1" id="Capa_1" xmlns="http://www.w3.org/2000/svg" xmlns:xlink="http://www.w3.org/1999/xlink" x="0px" y="0px"
	 width="400px" height="260px" viewBox="0 0 400 260" style="enable-background:new 0 0 400 260;" xml:space="preserve" fill="#4557DA" >
<polygon points="326.829,82.156 326.829,91.639 327.055,91.606 "/>
<polygon points="366.065,85.96 366.065,86.132 366.065,117.388 400,112.699 382.329,94.656 394.342,72.698 326.829,82.156 
	365.365,86.061 "/>
<polygon points="366.065,126.785 366.065,126.613 365.365,126.714 "/>
<polygon points="365.365,86.061 326.829,82.156 327.055,91.606 "/>
<polygon points="33.935,142.612 0,147.301 17.671,165.344 5.658,187.302 73.171,177.844 33.935,173.868 "/>
<polygon points="73.171,177.844 73.171,168.189 33.935,173.868 "/>
<polygon points="366.065,86.132 366.065,85.96 365.365,86.061 327.055,91.606 326.829,91.639 33.935,133.215 33.935,142.612 
	33.935,173.868 73.171,168.189 365.365,126.714 366.065,126.613 366.065,117.388 "/>
</svg>
