<?xml version="1.0" encoding="utf-8"?>
<!-- Generator: Adobe Illustrator 24.3.0, SVG Export Plug-In . SVG Version: 6.00 Build 0)  -->
<svg version="1.1" id="Capa_1" xmlns="http://www.w3.org/2000/svg" xmlns:xlink="http://www.w3.org/1999/xlink" x="0px" y="0px"
	 width="400px" height="260px" viewBox="0 0 400 260" style="enable-background:new 0 0 400 260;" xml:space="preserve" fill="#4557DA" >
<polygon points="264.303,90.796 264.303,100.279 264.529,100.246 "/>
<polygon points="303.538,94.599 303.538,94.772 303.538,126.028 337.474,121.339 319.803,103.296 331.816,81.338 264.303,90.796 
	302.838,94.701 "/>
<polygon points="303.538,135.425 303.538,135.253 302.838,135.354 "/>
<polygon points="302.838,94.701 264.303,90.796 264.529,100.246 "/>
<polygon points="96.462,133.972 62.526,138.661 80.197,156.704 68.184,178.662 135.697,169.204 96.462,165.228 "/>
<polygon points="135.697,169.204 135.697,159.549 96.462,165.228 "/>
<polygon points="303.538,94.772 303.538,94.599 302.838,94.701 264.529,100.246 264.303,100.279 96.462,124.575 96.462,133.972 
	96.462,165.228 135.697,159.549 302.838,135.354 303.538,135.253 303.538,126.028 "/>
</svg>
