<svg width="200" height="200" viewBox="0 0 200 200" xmlns="http://www.w3.org/2000/svg">
<path fill="#4557DA" d="M168.338 18.0707C177.349 30.4554 172.242 53.961 176.748 70.8951C180.953 88.082 195.071 98.6974 198.975 111.588C202.58 124.478 196.272 139.137 186.36 154.808C176.448 170.478 163.231 186.907 144.308 194.489C125.685 202.324 101.355 201.566 81.8314 193.731C62.6077 185.896 47.8896 170.983 31.6697 156.577C15.4498 142.17 -1.67126 128.016 0.130955 113.862C2.23354 99.9611 23.5597 85.8072 32.2705 65.8401C41.2815 46.1258 37.9775 20.5982 49.3915 8.97177C60.8055 -2.65464 86.9376 -0.379904 111.568 1.64208C136.198 3.66407 159.327 5.4333 168.338 18.0707Z" />
</svg>
