<?xml version="1.0" encoding="utf-8"?>
<!-- Generator: Adobe Illustrator 24.3.0, SVG Export Plug-In . SVG Version: 6.00 Build 0)  -->
<svg version="1.1" id="Layer_1" xmlns="http://www.w3.org/2000/svg" xmlns:xlink="http://www.w3.org/1999/xlink" x="0px" y="0px"
	 viewBox="0 0 100 64.8" style="enable-background:new 0 0 100 64.8;" xml:space="preserve">
<style type="text/css">
	.st0{fill="#4557DA"}
</style>
<g>
	<path style="fill:#4557DA" id="XMLID_1_" class="st0" d="M41.6,58.4c10.8-7,24.2-8.8,36.8-5.2c1,0.2,1.8,0.4,2.8,0.6c5.4,0.8,11.2-0.2,15-4.2
		c3-3.2,4-7.8,3.8-12c-0.4-7.4-4.4-14.6-10.6-18.8c-5.8-4-13.2-5.4-19.6-8.6c-8-4.2-15.4-11.6-24.4-10c-4.6,0.8-8.2,4-11.8,7
		C24.2,15.4,15,23.4,6.8,32.8C3.6,36.4,0.4,40.6,0,45.4S2.2,55,6,58.2S14.6,63,19.4,64c4.4,1,9.2,1.2,13.4-0.4c3.2-1.2,6-3.2,8.8-5
		C41.4,58.6,41.6,58.4,41.6,58.4" />
</g>
</svg>
