<?xml version="1.0" encoding="utf-8"?>
<!-- Generator: Adobe Illustrator 24.3.0, SVG Export Plug-In . SVG Version: 6.00 Build 0)  -->
<svg version="1.1" id="Layer_1" xmlns="http://www.w3.org/2000/svg" xmlns:xlink="http://www.w3.org/1999/xlink" x="0px" y="0px"
	 viewBox="0 0 100 82.6" style="enable-background:new 0 0 100 82.6;" xml:space="preserve">
<style type="text/css">
	.st0{fill="#4557DA"}
</style>
<g>
	<path style="fill:#4557DA" id="XMLID_4_" class="st0" d="M47.9,3.6c-3,0-6-0.8-8.8-2c-4.2-1.8-9.4-2-14-0.8c-6,1.6-11.4,5.6-15.8,10
		c-5,5.4-9.6,11.8-9.4,19.6c0,3.4,1.2,6.6,3.4,9.2c5.6,6.4,13.4,4,20.6,5c7.6,1,14.2,5.6,19.2,11.2c5,5.8,8.4,12.6,11.6,19.4
		c1.4,2.8,2.8,5.8,5.8,7c1.6,0.6,3.2,0.6,4.8,0.4c17.6-2,32.8-17.4,34.5-34.9c1.6-17.6-10.2-35.5-27-40.9c-7-2.2-14.2-2.6-21.4-2.8
		C50.3,3.8,49.1,3.6,47.9,3.6"/>
</g>
</svg>
