<?xml version="1.0" encoding="utf-8"?>
<!-- Generator: Adobe Illustrator 24.3.0, SVG Export Plug-In . SVG Version: 6.00 Build 0)  -->
<svg version="1.1" id="Layer_1" xmlns="http://www.w3.org/2000/svg" xmlns:xlink="http://www.w3.org/1999/xlink" x="0px" y="0px"
	 viewBox="0 0 100 89.7" style="enable-background:new 0 0 100 89.7;" xml:space="preserve">
<style type="text/css">
	.st0{fill="#4557DA"}
</style>
<g>
	<path style="fill:#4557DA" id="XMLID_2_" class="st0" d="M12.7,0.2C4.6,1-1,10,0.2,18.2C1.2,26.4,7.4,33,14.6,37c4,2.2,8.6,4,12.4,6.6
		C34.6,49,38.6,58.2,43.6,66c4.6,7.2,10.4,13.8,17.8,18.6c7,4.6,16.4,7.2,23.9,3.6c8-3.6,11.8-12.8,13.6-21.4
		c1.2-5.8,1.8-11.8,0.6-17.6c-3-14-15.6-24.1-27.9-31.5C52.8,6.2,31.3-1.4,12.7,0.2"/>
</g>
</svg>
