<svg width="200" height="200" viewBox="0 0 200 200" xmlns="http://www.w3.org/2000/svg">
<path fill="#4557DA" d="M179.891 8.71564C192.824 20.842 192.824 47.6933 195.469 70.2138C197.821 92.7342 203.111 110.924 197.527 125.071C191.942 139.219 175.482 149.035 159.903 161.739C144.325 174.443 129.628 189.745 109.935 196.386C90.5349 202.738 66.1384 200.717 43.5055 190.323C21.1666 179.929 0.591219 161.162 0.00335188 140.374C-0.290582 119.874 18.8151 97.3538 30.5724 75.6995C42.3298 54.0452 46.4449 33.2571 59.084 21.1308C72.0171 9.00436 93.4742 5.8284 117.283 2.65244C141.091 -0.234794 166.958 -3.41075 179.891 8.71564Z" />
</svg>
