<?xml version="1.0" encoding="utf-8"?>
<!-- Generator: Adobe Illustrator 24.3.0, SVG Export Plug-In . SVG Version: 6.00 Build 0)  -->
<svg version="1.1" id="Layer_1" xmlns="http://www.w3.org/2000/svg" xmlns:xlink="http://www.w3.org/1999/xlink" x="0px" y="0px"
	 viewBox="0 0 100 83.1" style="enable-background:new 0 0 100 83.1;" xml:space="preserve">
<style type="text/css">
	.st0{fill="#4557DA"}
</style>
<g>
	<path fill="#4557DA" id="XMLID_17_" class="st0" d="M46.3,1.9c-3.2,1.2-7,4.2-9,7.6c-2.4,4.2,1.8,9.2,1.6,14.2c0,3.8-2.6,7-5.8,9s-7,2.8-10.6,3.6
		c-4.8,1.2-9.4,2.6-13.6,5c-4,2.6-7.4,6.6-8.4,11.4c-1.3,5.4,0.7,11,3.5,15.7c1.8,2.8,3.8,5.6,7,6.8c6.2,2.2,12.4-2.6,19.1-3
		c8-0.6,14.6,5.6,22.1,8.6C63,85.2,75.8,83,85.6,77c5.6-3.4,10.6-8.2,13-14.2c2.4-6.2,1.6-13.8-3-18.5C91,39.7,84,38.7,77.7,36.9
		c-6.2-1.8-13.2-5.6-13.8-12.2c-0.4-3.8,1.4-7.6,2.6-11.4c1.2-3.8,1.4-8.4-1.6-11c-1.4-1.2-3.2-1.6-4.8-1.8
		C54.9-0.7,49.3,0.7,46.3,1.9"/>
</g>
</svg>
