<?xml version="1.0" encoding="utf-8"?>
<!-- Generator: Adobe Illustrator 25.3.1, SVG Export Plug-In . SVG Version: 6.00 Build 0)  -->
<svg version="1.1" id="Capa_1" xmlns="http://www.w3.org/2000/svg" xmlns:xlink="http://www.w3.org/1999/xlink" x="0px" y="0px"
	 viewBox="0 0 520 520" style="enable-background:new 0 0 520 520;" xml:space="preserve">
<path style="fill:#4557DA" d="M260,31.3c4,9.9,7.7,19.4,11.6,28.7c10.5,25.2,22.2,49.9,36.7,73.1c23.2,37.1,54.4,65.5,92.4,86.9
	c25.8,14.5,52.8,26.1,80.2,36.8c2.4,1,4.9,1.9,7.9,3.1c-4.3,1.7-7.9,3.1-11.6,4.5c-28.4,11.2-56.4,23.4-82.8,39
	c-22.2,13.2-42.4,28.9-59.7,48.1c-15.5,17.3-28.2,36.5-39.1,56.9c-13.5,25-24.4,51.2-34.6,77.7c-0.2,0.6-0.5,1.2-1,2.5
	c-0.5-1.2-0.8-1.9-1.1-2.6c-9.7-25.1-20-49.9-32.5-73.7c-14.2-27.2-31.3-52.3-53.7-73.5c-18.4-17.4-39.2-31.4-61.5-43.4
	c-25-13.4-51.1-24.3-77.5-34.5c-0.7-0.3-1.4-0.5-2.7-1c3-1.2,5.5-2.1,8-3.1c28.7-11.2,57-23.3,83.7-38.9
	c23.2-13.5,44.3-29.6,62.3-49.6c15.6-17.3,28.3-36.6,39.3-57.1c13.4-25,24.3-51.1,34.5-77.5C259.2,33.2,259.5,32.5,260,31.3z"/>
</svg>
