<svg width="80" height="80" viewBox="0 0 80 80" fill="#4557DA" xmlns="http://www.w3.org/2000/svg"><path d="M47.09 9.746l.805.79 1.092-.281L58.6 7.784l2.667 9.56.303 1.086 1.086.303 9.56 2.667-2.47 9.613-.281 1.092.789.805L77.2 40l-6.946 7.09-.79.805.281 1.092 2.471 9.613-9.56 2.667-1.086.303-.303 1.086-2.667 9.56-9.613-2.47-1.092-.281-.805.789L40 77.2l-7.09-6.946-.805-.79-1.092.281-9.613 2.471-2.667-9.56-.303-1.086-1.086-.303-9.56-2.667 2.47-9.613.281-1.092-.789-.805L2.8 40l6.946-7.09.79-.805-.281-1.092L7.784 21.4l9.56-2.667 1.086-.303.303-1.086 2.667-9.56 9.613 2.47 1.092.281.805-.789L40 2.8l7.09 6.946z" fill="#4557DA" stroke="#4557DA" stroke-width="4"/></svg>