<?xml version="1.0" encoding="iso-8859-1"?>
<!-- Generator: Adobe Illustrator 23.0.3, SVG Export Plug-In . SVG Version: 6.00 Build 0)  -->
<svg version="1.1" id="Capa_1" xmlns="http://www.w3.org/2000/svg" xmlns:xlink="http://www.w3.org/1999/xlink" x="0px" y="0px"
	 viewBox="0 0 512 512" style="enable-background:new 0 0 512 512;" xml:space="preserve">
<path style="fill:#4557DA" d="M374.424,497.375l-103.419-55.132c-10.213-5.445-22.451-5.516-32.727-0.189L134.23,495.991
	c-25.875,13.415-55.9-8.666-50.808-37.363L103.9,343.234c2.022-11.395-1.694-23.056-9.935-31.184l-83.45-82.286
	c-20.755-20.465-9.033-55.843,19.834-59.869l116.074-16.184c11.463-1.597,21.405-8.734,26.587-19.083l52.472-104.795
	c13.05-26.061,50.319-25.847,63.066,0.363l51.261,105.393c5.063,10.408,14.921,17.657,26.366,19.389l115.88,17.52
	c28.818,4.357,40.131,39.869,19.142,60.092l-84.393,81.32c-8.333,8.031-12.182,19.649-10.291,31.066L425.659,460.6
	C430.42,489.354,400.143,511.086,374.424,497.375z"/>
<g>
</g>
<g>
</g>
<g>
</g>
<g>
</g>
<g>
</g>
<g>
</g>
<g>
</g>
<g>
</g>
<g>
</g>
<g>
</g>
<g>
</g>
<g>
</g>
<g>
</g>
<g>
</g>
<g>
</g>
</svg>
