<svg width="24" height="22" viewBox="0 0 24 22" fill="none" xmlns="http://www.w3.org/2000/svg">
<path d="M22.73 0.5H1.73999C1.05516 0.5 0.5 1.05293 0.5 1.735C0.5 2.41707 1.05516 2.97 1.73999 2.97H22.73C23.4148 2.97 23.97 2.41707 23.97 1.735C23.97 1.05293 23.4148 0.5 22.73 0.5Z" fill="black"/>
<path d="M22.73 6.67969H1.73999C1.05516 6.67969 0.5 7.23485 0.5 7.91969V9.14969C0.5 9.83452 1.05516 10.3897 1.73999 10.3897H22.73C23.4148 10.3897 23.97 9.83452 23.97 9.14969V7.91969C23.97 7.23485 23.4148 6.67969 22.73 6.67969Z" fill="black"/>
<path d="M22.73 15.3203H1.73999C1.05516 15.3203 0.5 15.8755 0.5 16.5603V20.2603C0.5 20.9451 1.05516 21.5003 1.73999 21.5003H22.73C23.4148 21.5003 23.97 20.9451 23.97 20.2603V16.5603C23.97 15.8755 23.4148 15.3203 22.73 15.3203Z" fill="black"/>
</svg>
