<svg width="26" height="26" viewBox="0 0 26 26" fill="none" xmlns="http://www.w3.org/2000/svg">
<path d="M5.00024 8.51973H1.36023C0.52023 8.51973 0.280273 8.28973 0.280273 7.44973V6.34972C0.280273 5.66972 0.560273 5.34972 1.28027 5.34972H5.00024V1.65973C5.00024 0.949725 5.26024 0.659725 6.00024 0.659725H7.18024C7.89024 0.659725 8.18024 0.929725 8.18024 1.65973C8.18024 3.72973 8.18024 5.79972 8.18024 7.86972V15.6397L15.2902 8.53973H9.81024V5.39973H18.2302C18.4584 5.39004 18.6753 5.29761 18.8403 5.13973C20.2203 3.78973 21.5903 2.40973 22.9603 1.03973C23.4703 0.529727 23.7402 0.529727 24.2502 1.03973L25.1102 1.89973C25.6702 2.45973 25.6702 2.71973 25.1102 3.27973L21.9102 6.46973C21.5302 6.84973 21.0203 7.17973 20.8303 7.63973C20.7142 8.16173 20.6939 8.70046 20.7703 9.22972V17.9997H24.4802C25.2202 17.9997 25.4802 18.2597 25.4802 18.9997V20.2197C25.4802 20.8597 25.1902 21.1297 24.5602 21.1297H20.7603V24.7797C20.7603 25.6097 20.5202 25.8397 19.6702 25.8497H18.5703C17.9103 25.8497 17.6403 25.5797 17.6403 24.9197C17.6403 23.7597 17.6403 22.6097 17.6403 21.4597V10.9997L10.6403 17.9997H16.0002V21.1497H6.92023C6.66327 21.1852 6.4016 21.1603 6.15594 21.077C5.91029 20.9937 5.68745 20.8544 5.505 20.67C5.32256 20.4856 5.18552 20.2613 5.10486 20.0147C5.02419 19.7682 5.00207 19.5063 5.04022 19.2497V8.51973H5.00024Z" fill="black"/>
</svg>
