<svg width="22" height="22" viewBox="0 0 22 22" fill="none" xmlns="http://www.w3.org/2000/svg">
<path d="M1.92011 20.8897C2.47011 20.3697 3.01011 19.8897 3.54011 19.3397C4.98011 17.9064 6.41671 16.4697 7.85004 15.0297C7.90843 14.9485 7.99397 14.8908 8.09113 14.8669C8.18829 14.8431 8.29072 14.8547 8.38007 14.8997C8.81503 15.0507 9.29001 15.0387 9.71674 14.8658C10.1435 14.6929 10.4929 14.3709 10.7 13.9597C10.9255 13.5358 10.9911 13.045 10.8846 12.5768C10.7781 12.1086 10.5067 11.6944 10.1201 11.4097C9.75252 11.1487 9.30764 11.0196 8.85749 11.0432C8.40733 11.0668 7.97832 11.2417 7.64008 11.5397C7.3525 11.7974 7.14565 12.1328 7.0445 12.5054C6.94336 12.8781 6.95217 13.272 7.07001 13.6397C7.08237 13.7135 7.07896 13.7891 7.06 13.8615C7.04104 13.9339 7.00698 14.0015 6.96003 14.0597C5.24003 15.7997 3.51343 17.5331 1.7801 19.2597C1.5401 19.5097 1.33002 19.7997 1.08002 20.0897C0.890862 19.926 0.713829 19.7489 0.550116 19.5597C0.516518 19.5105 0.492919 19.4551 0.480903 19.3967C0.468886 19.3384 0.468623 19.2782 0.480048 19.2197L3.09003 11.3597C3.45003 10.2997 3.83008 9.24973 4.14008 8.17973C4.26399 7.6979 4.51486 7.25815 4.86664 6.90637C5.21843 6.55458 5.65826 6.30364 6.14008 6.17973C8.06675 5.63306 9.99679 5.09306 11.9301 4.55973C12.0102 4.54472 12.0926 4.54676 12.1718 4.56571C12.2511 4.58466 12.3254 4.6201 12.3901 4.66972C14.0201 6.27972 15.6301 7.90973 17.2601 9.52973C17.33 9.58996 17.3792 9.67065 17.4007 9.76037C17.4222 9.8501 17.415 9.94433 17.3801 10.0297C16.9601 11.4797 16.5501 12.9397 16.1301 14.3897C15.9601 14.9897 15.78 15.5897 15.59 16.1797C15.4683 16.5569 15.2547 16.8978 14.9685 17.1719C14.6822 17.446 14.3321 17.6445 13.95 17.7497L3.10004 21.3597C2.46004 21.5897 2.44011 21.5897 1.92011 20.8897Z" fill="black"/>
<path d="M18.5699 8.76C18.0899 8.25 17.69 7.83 17.28 7.42C16.04 6.18 14.81 4.93 13.56 3.7C13.34 3.49 13.34 3.36001 13.56 3.15001C14.27 2.47001 14.95 1.75 15.67 1.07C15.8458 0.89192 16.0552 0.750522 16.2861 0.654015C16.517 0.557507 16.7647 0.507813 17.015 0.507812C17.2652 0.507813 17.513 0.557507 17.7439 0.654015C17.9747 0.750522 18.1841 0.89192 18.3599 1.07C19.1999 1.87 20.0299 2.69 20.8299 3.53C21.0308 3.72151 21.1897 3.95272 21.2963 4.20893C21.403 4.46514 21.4551 4.74075 21.4494 5.01822C21.4438 5.29568 21.3805 5.56894 21.2635 5.8206C21.1465 6.07226 20.9785 6.29683 20.77 6.48L18.5699 8.76Z" fill="black"/>
</svg>
