<svg width="22" height="22" viewBox="0 0 22 22" fill="none" xmlns="http://www.w3.org/2000/svg">
<path d="M11.2999 21.5C9.22319 21.5 7.19312 20.8842 5.4664 19.7304C3.73969 18.5767 2.39381 16.9368 1.59909 15.0182C0.804372 13.0996 0.596413 10.9884 1.00156 8.95156C1.4067 6.91476 2.40676 5.04383 3.87522 3.57538C5.34367 2.10693 7.21463 1.1069 9.25144 0.701759C11.2882 0.296614 13.3993 0.504552 15.318 1.29927C17.2366 2.09399 18.8765 3.4398 20.0302 5.16652C21.184 6.89323 21.7999 8.9233 21.7999 11C21.7973 13.784 20.6901 16.4531 18.7215 18.4217C16.753 20.3903 14.0839 21.4974 11.2999 21.5ZM11.5099 19.5C13.2024 19.4537 14.8423 18.9018 16.2185 17.9154C17.5946 16.929 18.644 15.5532 19.2314 13.9651C19.8188 12.3771 19.9174 10.6496 19.5145 9.00507C19.1115 7.36053 18.2254 5.87427 16.9704 4.73769C15.7154 3.60111 14.1489 2.86624 12.4726 2.62773C10.7963 2.38922 9.08701 2.65798 7.56479 3.3994C6.04257 4.14082 4.77715 5.32096 3.93149 6.78784C3.08583 8.25472 2.69863 9.94116 2.8198 11.63C2.97618 13.8067 3.96774 15.8387 5.58713 17.3016C7.20652 18.7645 9.32854 19.5449 11.5099 19.48V19.5Z" fill="black"/>
<path d="M11.2899 17.0904C10.3369 17.1233 9.38915 16.9345 8.52151 16.5388C7.65386 16.1432 6.89001 15.5515 6.28994 14.8104C6.15583 14.6839 6.05931 14.5228 6.01101 14.3449C5.96271 14.167 5.96452 13.9792 6.01626 13.8022C6.06799 13.6253 6.16757 13.4661 6.3041 13.3423C6.44063 13.2184 6.60882 13.1347 6.78994 13.1004C6.94526 13.069 7.10607 13.0783 7.25674 13.1274C7.40741 13.1765 7.54282 13.2636 7.64992 13.3804C8.12992 13.7704 8.57987 14.2004 9.08987 14.5404C9.78825 14.9676 10.6037 15.1635 11.4199 15.1004C12.2956 15.1171 13.1537 14.8544 13.8699 14.3504C14.2599 14.0504 14.6099 13.6904 14.9799 13.3504C15.0876 13.2411 15.2206 13.1602 15.3672 13.1148C15.5138 13.0695 15.6692 13.0611 15.8198 13.0904C15.9962 13.1238 16.1604 13.2041 16.2951 13.3228C16.4297 13.4416 16.53 13.5944 16.5852 13.7652C16.6405 13.936 16.6487 14.1186 16.609 14.2937C16.5694 14.4688 16.4833 14.63 16.3599 14.7604C15.8119 15.4538 15.1189 16.019 14.3295 16.4163C13.54 16.8136 12.6733 17.0334 11.7899 17.0604L11.2899 17.0904Z" fill="black"/>
<path d="M15.9999 8.99992C16.012 9.18366 15.9858 9.36792 15.923 9.54101C15.8602 9.71411 15.7622 9.87228 15.6351 10.0055C15.5079 10.1387 15.3546 10.2441 15.1846 10.315C15.0147 10.3858 14.8319 10.4206 14.6477 10.4171C14.4636 10.4137 14.2822 10.372 14.115 10.2948C13.9479 10.2176 13.7986 10.1065 13.6766 9.96855C13.5546 9.83062 13.4625 9.66887 13.4063 9.49353C13.3501 9.31819 13.3309 9.13308 13.3499 8.94993C13.3654 8.60504 13.5133 8.27942 13.763 8.04096C14.0126 7.80249 14.3446 7.66958 14.6899 7.66992C15.0359 7.68495 15.3634 7.8305 15.6065 8.07726C15.8495 8.32403 15.9901 8.6537 15.9999 8.99992Z" fill="black"/>
<path d="M9.2299 9.00023C9.22865 9.17352 9.19272 9.34482 9.12431 9.50404C9.05589 9.66326 8.95643 9.8072 8.83158 9.92739C8.70674 10.0476 8.55909 10.1416 8.39738 10.2039C8.23567 10.2662 8.06315 10.2956 7.88993 10.2902C7.53538 10.2824 7.19809 10.1353 6.95109 9.8808C6.70409 9.62632 6.56715 9.28486 6.56986 8.93023C6.57915 8.57749 6.72818 8.24289 6.98417 8.00003C7.24016 7.75717 7.58224 7.62594 7.93498 7.63523C8.28771 7.64451 8.62229 7.79354 8.86515 8.04953C9.10801 8.30551 9.23918 8.64749 9.2299 9.00023Z" fill="black"/>
</svg>
