<svg width="26" height="28" viewBox="0 0 26 28" fill="none" xmlns="http://www.w3.org/2000/svg">
<path d="M19.8703 0.5C20.1103 0.5 20.3603 0.569999 20.6003 0.629999C21.4119 0.823901 22.1522 1.24309 22.7361 1.8393C23.3199 2.43551 23.7235 3.18449 23.9003 4C23.9003 4.11 23.9803 4.12 24.0703 4.12H25.0003C25.2213 4.1434 25.426 4.24778 25.5746 4.41303C25.7233 4.57828 25.8055 4.79271 25.8055 5.015C25.8055 5.23729 25.7233 5.45172 25.5746 5.61697C25.426 5.78222 25.2213 5.8866 25.0003 5.91C24.7003 5.91 24.3903 5.91 24.0903 5.91C24.0003 5.91 23.9803 5.91 23.9503 6.03C23.7715 6.86426 23.3523 7.62792 22.7446 8.22677C22.1368 8.82563 21.3671 9.23347 20.5303 9.4C19.3837 9.65785 18.1816 9.4527 17.1854 8.82914C16.1892 8.20558 15.4794 7.21402 15.2103 6.07C15.2103 6.02 15.2103 5.98 15.2103 5.91H1.55028C1.38547 5.914 1.22274 5.87266 1.07982 5.79048C0.936904 5.7083 0.819305 5.58845 0.739856 5.44399C0.660407 5.29954 0.622129 5.13604 0.62926 4.97133C0.636391 4.80663 0.688685 4.64705 0.780322 4.51C0.874473 4.37463 1.00253 4.26641 1.15172 4.1962C1.30092 4.12599 1.46598 4.09627 1.6303 4.11H15.0003C15.1303 4.11 15.1803 4.11 15.2103 3.95C15.4163 3.09565 15.8679 2.3203 16.5094 1.71965C17.1509 1.119 17.9543 0.719339 18.8203 0.57L19.2503 0.51L19.8703 0.5ZM19.5503 7.7C20.0834 7.69605 20.6035 7.53435 21.0448 7.23528C21.4862 6.93621 21.8291 6.51316 22.0304 6.01946C22.2317 5.52577 22.2824 4.98353 22.176 4.4611C22.0695 3.93868 21.8108 3.45946 21.4324 3.08385C21.054 2.70825 20.5729 2.45308 20.0497 2.35051C19.5265 2.24794 18.9847 2.30256 18.4925 2.5075C18.0003 2.71243 17.5798 3.05849 17.284 3.50206C16.9882 3.94563 16.8303 4.46685 16.8303 5C16.8316 5.35588 16.903 5.70802 17.0404 6.03631C17.1778 6.3646 17.3785 6.66262 17.6311 6.91334C17.8837 7.16406 18.1831 7.36257 18.5124 7.49755C18.8417 7.63252 19.1944 7.70132 19.5503 7.7Z" fill="black"/>
<path d="M15.5804 27.4996C15.3004 27.4396 15.0004 27.4096 14.7204 27.3296C13.9374 27.1187 13.2275 26.6965 12.6684 26.1092C12.1092 25.5219 11.7225 24.792 11.5504 23.9996C11.5504 23.8896 11.4504 23.8896 11.3704 23.8896H1.60037C1.36167 23.9015 1.12805 23.8181 0.950833 23.6578C0.773611 23.4975 0.667357 23.2733 0.655423 23.0346C0.643488 22.7959 0.72683 22.5622 0.887173 22.385C1.04752 22.2078 1.27171 22.1015 1.5104 22.0896H11.3504C11.4704 22.0896 11.5204 22.0896 11.5604 21.9296C11.7927 20.9451 12.3506 20.0679 13.1438 19.4401C13.9369 18.8123 14.9188 18.4707 15.9304 18.4707C16.9419 18.4707 17.9238 18.8123 18.717 19.4401C19.5102 20.0679 20.0681 20.9451 20.3004 21.9296C20.3004 22.0396 20.3904 22.0496 20.4804 22.0496H24.8404C25.0716 22.0384 25.2982 22.1168 25.4731 22.2683C25.648 22.4199 25.7578 22.633 25.7797 22.8635C25.8016 23.0939 25.7339 23.3239 25.5906 23.5056C25.4473 23.6874 25.2396 23.807 25.0104 23.8396H20.4704C20.3604 23.8396 20.3304 23.8396 20.3004 23.9696C20.1034 24.8175 19.6638 25.5896 19.0351 26.1916C18.4064 26.7937 17.616 27.1995 16.7604 27.3596L16.2604 27.4396L15.5804 27.4996ZM15.9204 20.2996C15.3868 20.3016 14.8658 20.4616 14.4231 20.7595C13.9804 21.0574 13.6359 21.4797 13.4331 21.9733C13.2302 22.4668 13.1782 23.0093 13.2835 23.5324C13.3888 24.0555 13.6467 24.5357 14.0247 24.9123C14.4027 25.2889 14.8838 25.545 15.4073 25.6484C15.9308 25.7518 16.4731 25.6977 16.9659 25.4931C17.4587 25.2884 17.8798 24.9424 18.1761 24.4986C18.4723 24.0548 18.6304 23.5332 18.6304 22.9996C18.6317 22.6438 18.5624 22.2913 18.4266 21.9625C18.2908 21.6336 18.0911 21.335 17.839 21.0839C17.587 20.8328 17.2876 20.6341 16.9583 20.4995C16.6289 20.3649 16.2762 20.2969 15.9204 20.2996Z" fill="black"/>
<path d="M11.3302 14.9002C11.2381 15.3914 11.0585 15.8622 10.8002 16.2902C10.4304 16.9149 9.915 17.441 9.2979 17.8234C8.6808 18.2059 7.98033 18.4333 7.25628 18.4864C6.53222 18.5394 5.80613 18.4165 5.13988 18.1281C4.47363 17.8397 3.88702 17.3944 3.43017 16.8302C2.99448 16.3071 2.69247 15.6859 2.55016 15.0202C2.55016 14.9202 2.48019 14.9002 2.39019 14.9002H1.54015C1.33056 14.9006 1.12709 14.8295 0.963429 14.6986C0.799765 14.5676 0.68575 14.3847 0.640187 14.1802C0.602132 13.9756 0.636102 13.7641 0.736379 13.5818C0.836655 13.3995 0.997032 13.2576 1.19017 13.1802C1.31109 13.1323 1.44017 13.1086 1.57018 13.1102H2.4002C2.4902 13.1102 2.53016 13.1102 2.55016 12.9902C2.75623 12.1079 3.22381 11.3084 3.89171 10.6962C4.55962 10.0841 5.39675 9.68781 6.29357 9.55923C7.19039 9.43064 8.10515 9.57576 8.91814 9.97559C9.73114 10.3754 10.4045 11.0113 10.8501 11.8002C10.961 12.0068 11.0579 12.2206 11.1402 12.4401C11.2202 12.6501 11.2801 12.8702 11.3501 13.1102H24.8501C25.0559 13.096 25.2604 13.1515 25.4309 13.2675C25.6014 13.3836 25.7279 13.5536 25.7901 13.7502C25.8307 13.8845 25.8392 14.0264 25.8152 14.1646C25.7911 14.3028 25.7351 14.4335 25.6515 14.5462C25.568 14.6589 25.4592 14.7505 25.334 14.8137C25.2087 14.8769 25.0705 14.9099 24.9302 14.9102H11.3302V14.9002ZM9.62017 14.0002C9.62015 13.467 9.4623 12.9458 9.16649 12.5022C8.87069 12.0586 8.45019 11.7126 7.958 11.5076C7.4658 11.3027 6.92394 11.2481 6.40075 11.3507C5.87755 11.4532 5.39644 11.7084 5.01806 12.084C4.63967 12.4596 4.38095 12.9388 4.27453 13.4613C4.1681 13.9837 4.21874 14.5259 4.42003 15.0196C4.62133 15.5133 4.96426 15.9364 5.40563 16.2354C5.847 16.5345 6.36706 16.6962 6.9002 16.7002C7.25681 16.7041 7.61066 16.6372 7.94115 16.5031C8.27165 16.3691 8.5722 16.1707 8.82531 15.9194C9.07842 15.6682 9.27899 15.3691 9.41546 15.0396C9.55192 14.7101 9.62152 14.3568 9.62017 14.0002Z" fill="black"/>
</svg>
