<svg width="28" height="26" viewBox="0 0 28 26" fill="none" xmlns="http://www.w3.org/2000/svg">
<path d="M9.53021 21.4405L11.0902 22.8605C11.2669 22.9837 11.4125 23.1463 11.5156 23.3355C11.6186 23.5247 11.6764 23.7352 11.6841 23.9505C11.6919 24.1658 11.6495 24.38 11.5603 24.5761C11.4711 24.7722 11.3375 24.9448 11.1702 25.0805C10.2702 26.0805 9.51016 26.0805 8.60016 25.0805C7.20016 23.6005 5.73017 22.1905 4.30017 20.7605C4.15635 20.6366 4.04096 20.4831 3.96185 20.3105C3.88275 20.1379 3.8418 19.9503 3.8418 19.7605C3.8418 19.5706 3.88275 19.383 3.96185 19.2105C4.04096 19.0379 4.15635 18.8844 4.30017 18.7605C5.86017 17.1805 7.42351 15.6105 8.99017 14.0505C9.10657 13.9169 9.25027 13.8097 9.41156 13.7363C9.57285 13.6629 9.74797 13.625 9.92517 13.625C10.1024 13.625 10.2776 13.6629 10.4388 13.7363C10.6001 13.8097 10.7438 13.9169 10.8602 14.0505C11.0293 14.1978 11.1864 14.3583 11.3302 14.5305C11.4745 14.6566 11.589 14.8132 11.6652 14.9891C11.7414 15.165 11.7774 15.3556 11.7707 15.5471C11.764 15.7387 11.7147 15.9263 11.6264 16.0964C11.5381 16.2665 11.413 16.4148 11.2602 16.5305C10.8502 16.9405 10.4002 17.3305 9.98016 17.7405C9.85678 17.8573 9.73996 17.9808 9.63019 18.1105C9.87019 18.1105 10.0202 18.1105 10.1802 18.1105C13.0702 18.1105 15.9602 18.1105 18.8402 18.1105C19.8502 18.1626 20.8528 17.9128 21.7202 17.3927C22.5876 16.8726 23.2804 16.1059 23.7102 15.1905C24.2509 14.0821 24.351 12.8098 23.9902 11.6305C23.978 11.5758 23.9613 11.5223 23.9402 11.4705C23.5002 10.0505 23.5602 9.86048 24.6902 8.91048C24.831 8.76397 25.0065 8.6553 25.2004 8.59449C25.3944 8.53368 25.6005 8.5227 25.7997 8.56256C25.999 8.60242 26.1851 8.69183 26.3407 8.82254C26.4963 8.95326 26.6165 9.12107 26.6902 9.31048C27.3638 10.6739 27.6542 12.1948 27.5302 13.7105C27.4244 15.0805 26.9797 16.4028 26.2361 17.5584C25.4925 18.714 24.4733 19.6665 23.2702 20.3305C22.0344 21.0674 20.6189 21.4481 19.1802 21.4305H10.1802C9.96352 21.4197 9.74643 21.423 9.53021 21.4405Z" fill="black"/>
<path d="M18.5499 8.00048C18.3844 7.97198 18.2175 7.95195 18.0499 7.94048H9.21991C8.18528 7.87871 7.15704 8.14 6.27741 8.68821C5.39777 9.23641 4.71025 10.0444 4.30994 11.0005C3.85746 12.0537 3.79019 13.2326 4.11994 14.3305C4.11445 14.3669 4.11445 14.404 4.11994 14.4405C4.54994 15.6805 4.70993 15.9605 3.35993 17.0705C3.21917 17.204 3.04837 17.3017 2.86194 17.3554C2.67551 17.409 2.47895 17.4171 2.28876 17.3789C2.09856 17.3406 1.92031 17.2572 1.76911 17.1357C1.6179 17.0141 1.49815 16.858 1.41992 16.6805C0.521916 14.8463 0.327239 12.7466 0.872682 10.7786C1.41812 8.8106 2.66589 7.11071 4.37995 6.00048C5.80039 5.05265 7.48349 4.57676 9.18994 4.64048H17.78H18.4999C18.3399 4.45048 18.2399 4.33048 18.1299 4.22048C17.7199 3.83048 17.3 3.46048 16.9 3.07048C16.744 2.9479 16.6178 2.7915 16.5311 2.61308C16.4444 2.43465 16.3994 2.23886 16.3994 2.04048C16.3994 1.8421 16.4444 1.64631 16.5311 1.46789C16.6178 1.28946 16.744 1.13306 16.9 1.01048L17.2199 0.680481C17.3387 0.528734 17.4905 0.406014 17.6638 0.321617C17.837 0.23722 18.0272 0.193359 18.2199 0.193359C18.4126 0.193359 18.6029 0.23722 18.7761 0.321617C18.9494 0.406014 19.1011 0.528734 19.2199 0.680481C20.7499 2.20048 22.2799 3.68048 23.7899 5.26048C23.952 5.38671 24.0831 5.54826 24.1733 5.73281C24.2635 5.91737 24.3103 6.12007 24.3103 6.32548C24.3103 6.53089 24.2635 6.73359 24.1733 6.91815C24.0831 7.1027 23.952 7.26425 23.7899 7.39048L19.27 11.9105C19.1489 12.0719 18.9919 12.203 18.8113 12.2932C18.6308 12.3835 18.4317 12.4305 18.2299 12.4305C18.0281 12.4305 17.8291 12.3835 17.6486 12.2932C17.4681 12.203 17.311 12.0719 17.1899 11.9105L16.8599 11.5805C16.7149 11.4471 16.6006 11.2838 16.525 11.1019C16.4493 10.92 16.414 10.7239 16.4216 10.527C16.4292 10.3301 16.4795 10.1373 16.569 9.96175C16.6585 9.78624 16.7851 9.63226 16.9399 9.51048L18.5499 8.00048Z" fill="black"/>
</svg>
