<svg width="22" height="22" viewBox="0 0 22 22" fill="none" xmlns="http://www.w3.org/2000/svg">
<path d="M7.99976 0.5H9.10974C9.32974 0.5 9.54978 0.55 9.76978 0.6C11.1759 0.815855 12.498 1.406 13.5977 2.30857C14.6973 3.21115 15.5339 4.39292 16.0198 5.73C16.0379 5.78781 16.0703 5.84011 16.114 5.88206C16.1577 5.92401 16.2113 5.95426 16.2698 5.97C18.148 6.63394 19.7108 7.97473 20.6527 9.73009C21.5946 11.4854 21.8478 13.5291 21.3625 15.4612C20.8773 17.3933 19.6887 19.0748 18.0292 20.1769C16.3697 21.2789 14.3588 21.7222 12.3898 21.42C10.958 21.2467 9.60206 20.6804 8.47241 19.7837C7.34276 18.8871 6.48345 17.6951 5.98975 16.34C5.96527 16.2641 5.92365 16.1949 5.86816 16.1377C5.81268 16.0805 5.74486 16.0368 5.6698 16.01C4.42594 15.5513 3.31673 14.7885 2.44336 13.7911C1.56999 12.7937 0.960265 11.5935 0.6698 10.3C0.5798 9.91 0.539727 9.51 0.469727 9.12V8L0.589722 7.15C0.864339 5.6164 1.57703 4.19507 2.64172 3.05762C3.70642 1.92018 5.07759 1.11524 6.58972 0.74C7.05972 0.64 7.53976 0.58 7.99976 0.5ZM5.51978 14.59C5.35497 13.3614 5.47577 12.1113 5.8728 10.937C6.26983 9.76264 6.93241 8.69572 7.80896 7.81917C8.68551 6.94262 9.75243 6.28007 10.9268 5.88304C12.1011 5.48601 13.3511 5.36519 14.5797 5.53C13.9697 4.27022 12.982 3.23199 11.7543 2.55985C10.5265 1.88771 9.1197 1.61511 7.72974 1.78C6.20024 1.95871 4.77577 2.6483 3.68689 3.73717C2.59801 4.82605 1.90844 6.2505 1.72974 7.78C1.5762 9.16934 1.85978 10.572 2.54089 11.7926C3.22201 13.0132 4.2668 13.9911 5.52979 14.59H5.51978ZM7.40979 16.47C8.01528 17.7363 9.00314 18.7805 10.234 19.4552C11.4649 20.1298 12.8766 20.4008 14.2698 20.23C15.867 20.0366 17.3447 19.2855 18.4424 18.1092C19.54 16.9329 20.1872 15.4068 20.2698 13.8C20.3373 12.4811 20.01 11.172 19.3297 10.04C18.6564 8.89569 17.662 7.97425 16.4697 7.39C16.6504 8.62158 16.5411 9.87833 16.1506 11.0603C15.7602 12.2422 15.0993 13.3167 14.2206 14.1984C13.3419 15.08 12.2696 15.7444 11.089 16.1388C9.90835 16.5331 8.65198 16.6466 7.4198 16.47H7.40979ZM13.7197 12.93L9.08972 8.29L8.25977 9.1L12.9098 13.74L13.7197 12.93ZM7.50977 10.18C7.34977 10.55 7.1998 10.92 7.0498 11.29C7.04398 11.3211 7.04635 11.3532 7.05688 11.3831C7.06742 11.4129 7.08568 11.4394 7.10974 11.46C8.24307 12.6133 9.37978 13.7533 10.5198 14.88C10.5665 14.9225 10.6266 14.9473 10.6897 14.95L11.8197 14.49L7.50977 10.18ZM10.1798 7.52L14.4797 11.82L14.9397 10.7C14.9397 10.7 14.9398 10.58 14.8798 10.54L11.4497 7.11C11.4497 7.11 11.3398 7.04 11.2998 7.11C10.9298 7.2 10.5597 7.36 10.1897 7.52H10.1798ZM12.9098 6.72L15.2798 9.1C15.3405 8.39264 15.2864 7.68012 15.1198 6.99C15.1198 6.94 15.0097 6.88 14.9397 6.86C14.3401 6.72175 13.7242 6.6679 13.1097 6.7L12.9098 6.72ZM9.10974 15.31L6.70972 12.91C6.6441 13.6206 6.69822 14.3373 6.86975 15.03C6.86975 15.03 6.97979 15.13 7.03979 15.14C7.42979 15.2 7.81973 15.27 8.21973 15.3C8.51936 15.3186 8.81978 15.322 9.11975 15.31H9.10974Z" fill="black"/>
</svg>
