<svg width="23" height="23" viewBox="0 0 23 23" fill="none" xmlns="http://www.w3.org/2000/svg">
<path d="M22.7701 5.99959C22.7701 6.54959 22.4701 6.82959 22.0201 6.99959L16.6601 9.41958C15.2701 10.0496 13.8801 10.6696 12.5001 11.3096C12.2798 11.4204 12.0367 11.4781 11.7901 11.4781C11.5435 11.4781 11.3003 11.4204 11.08 11.3096C7.89002 9.84959 4.69006 8.40958 1.50006 6.95959C1.36247 6.92131 1.23471 6.85401 1.1253 6.76221C1.0159 6.67041 0.927367 6.55624 0.865782 6.42739C0.804197 6.29853 0.770965 6.15798 0.768248 6.01519C0.76553 5.8724 0.793397 5.73069 0.850035 5.59958C0.916485 5.45892 1.01256 5.33426 1.13165 5.23416C1.25074 5.13405 1.3901 5.06086 1.5401 5.01959L8.21002 2.01959C9.21002 1.57959 10.2101 1.14959 11.1201 0.699587C11.3285 0.590924 11.5601 0.53418 11.7951 0.53418C12.0301 0.53418 12.2616 0.590924 12.47 0.699587L22.09 5.05959C22.49 5.20959 22.8001 5.44959 22.7701 5.99959Z" fill="black"/>
<path d="M22.7703 11.5093C22.7852 11.7153 22.7286 11.9202 22.6103 12.0896C22.4919 12.2589 22.3189 12.3824 22.1203 12.4393C19.1203 13.8193 16.0103 15.1693 12.9803 16.5993C12.6064 16.7989 12.1891 16.9033 11.7653 16.9033C11.3415 16.9033 10.9242 16.7989 10.5503 16.5993C7.55032 15.1993 4.55032 13.8493 1.55032 12.4893C1.14032 12.3093 0.810313 12.0793 0.790313 11.5793C0.751582 11.3759 0.784112 11.1654 0.882476 10.9832C0.98084 10.8011 1.13894 10.6584 1.33023 10.5793C2.09023 10.2493 2.84026 9.91926 3.61026 9.57926C3.76555 9.52436 3.93495 9.52436 4.09024 9.57926L9.42032 11.9693L10.7102 12.5493C11.0686 12.7171 11.4595 12.8041 11.8553 12.8041C12.251 12.8041 12.6419 12.7171 13.0003 12.5493L19.4402 9.66926C19.5547 9.61048 19.6816 9.57982 19.8103 9.57982C19.939 9.57982 20.0658 9.61048 20.1803 9.66926C20.8503 9.98926 21.5203 10.2793 22.1803 10.5593C22.3769 10.6195 22.545 10.7489 22.6535 10.9236C22.762 11.0982 22.8035 11.3063 22.7703 11.5093Z" fill="black"/>
<path d="M22.7701 16.9995C22.7822 17.2163 22.7233 17.4312 22.6024 17.6116C22.4815 17.792 22.3052 17.9281 22.1001 17.9995L14.5001 21.4495C13.8101 21.7595 13.1102 22.0595 12.4302 22.3895C12.2249 22.4909 11.9991 22.5436 11.7701 22.5436C11.5412 22.5436 11.3153 22.4909 11.1101 22.3895L5.94006 19.9995L1.50012 17.9995C1.36749 17.9604 1.24444 17.8942 1.13867 17.8052C1.03291 17.7161 0.946704 17.6061 0.885621 17.482C0.824537 17.358 0.789806 17.2226 0.783692 17.0845C0.777578 16.9463 0.800213 16.8084 0.850098 16.6795C0.933164 16.4831 1.07685 16.3184 1.26013 16.2095C2.02013 15.8395 2.80009 15.4995 3.59009 15.2095C3.76216 15.1751 3.94071 15.1961 4.1001 15.2695C6.2301 16.2095 8.3601 17.1495 10.4801 18.1195C10.891 18.3208 11.3426 18.4255 11.8002 18.4255C12.2578 18.4255 12.7092 18.3208 13.1201 18.1195C15.2201 17.1195 17.3501 16.2295 19.4601 15.2795C19.5652 15.2251 19.6819 15.1967 19.8002 15.1967C19.9185 15.1967 20.035 15.2251 20.1401 15.2795C20.8101 15.5895 21.4801 15.8795 22.1401 16.1695C22.3224 16.2183 22.4831 16.3264 22.5972 16.4766C22.7112 16.6269 22.7721 16.8108 22.7701 16.9995Z" fill="black"/>
</svg>
