<svg width="22" height="20" viewBox="0 0 22 20" fill="none" xmlns="http://www.w3.org/2000/svg">
<path d="M15.4898 17.5001H20.8198C21.3598 17.5001 21.4698 17.6101 21.4798 18.1301C21.4898 18.6501 21.4798 19.0301 21.4798 19.4801C21.4798 19.9301 21.3298 19.9501 21.0098 19.9801C20.9265 19.9852 20.8431 19.9852 20.7598 19.9801H7.27983C6.95625 19.9876 6.63473 19.9264 6.33653 19.8006C6.03833 19.6748 5.77019 19.4872 5.54979 19.2501C4.40979 18.0801 3.25977 16.9301 2.09977 15.7801C1.81064 15.5456 1.59946 15.2289 1.49412 14.8718C1.38878 14.5147 1.39427 14.1341 1.50981 13.7801C1.63781 13.4063 1.84599 13.065 2.11979 12.7801C3.51979 11.3501 4.93977 9.95015 6.34977 8.53015L11.8298 3.05015C12.0533 2.79845 12.3354 2.60567 12.651 2.48882C12.9667 2.37196 13.3063 2.33464 13.6398 2.38015C14.066 2.43855 14.4585 2.64364 14.7498 2.96015C16.8098 5.02015 18.8698 7.07015 20.9098 9.14015C21.0995 9.31437 21.251 9.52611 21.3546 9.76194C21.4582 9.99777 21.5118 10.2526 21.5118 10.5101C21.5118 10.7677 21.4582 11.0225 21.3546 11.2584C21.251 11.4942 21.0995 11.7059 20.9098 11.8801L15.7198 17.0801C15.631 17.1549 15.5337 17.2186 15.4298 17.2701L15.4898 17.5001ZM9.54979 17.5001C10.2198 17.5001 10.8898 17.5001 11.5498 17.5001C11.7115 17.4953 11.8668 17.4353 11.9898 17.3301C12.7498 16.6001 13.4898 15.8401 14.2498 15.1101C14.4398 14.9301 14.4398 14.8101 14.2498 14.6301C12.5898 12.9768 10.9231 11.3101 9.2498 9.63015C9.0598 9.43015 8.94982 9.45015 8.76982 9.63015C7.29648 11.1235 5.82311 12.6068 4.34977 14.0801C4.17977 14.2501 4.16977 14.3601 4.34977 14.5401C5.26977 15.4501 6.16977 16.3801 7.09977 17.2901C7.22838 17.4004 7.39054 17.4638 7.5598 17.4701C8.2598 17.5101 8.89979 17.5001 9.54979 17.5001Z" fill="#4557DA"/>
<path d="M2.62 5.0498C2.1826 5.98237 1.43257 6.73241 0.5 7.1698C1.43455 7.60436 2.18544 8.35525 2.62 9.28981C3.04771 8.35392 3.79613 7.60194 4.72998 7.1698C3.79817 6.73476 3.05063 5.98366 2.62 5.0498Z" fill="#4557DA"/>
<path d="M19.38 0.580078C18.9494 1.51394 18.2018 2.26504 17.27 2.70008C18.2011 3.13119 18.9489 3.87896 19.38 4.81008C19.8179 3.88027 20.5681 3.13357 21.5 2.70008C20.5674 2.26268 19.8174 1.51264 19.38 0.580078Z" fill="#4557DA"/>
<path d="M5.99994 0C5.6813 0.688479 5.12842 1.24136 4.43994 1.56C4.43994 1.97374 4.60429 2.37053 4.89685 2.66309C5.18941 2.95564 5.5862 3.12 5.99994 3.12C6.41368 3.12 6.81047 2.95564 7.10303 2.66309C7.39558 2.37053 7.55994 1.97374 7.55994 1.56C6.87146 1.24136 6.31858 0.688479 5.99994 0Z" fill="#4557DA"/>
</svg>
