<svg width="26" height="26" viewBox="0 0 26 26" fill="#4557DA" xmlns="http://www.w3.org/2000/svg">
<path d="M7.99988 0.5C9.64988 1.11 10.1099 1.78 10.1099 3.56C10.1099 5 10.1099 6.44 10.1099 7.88C10.1255 8.22822 10.0685 8.57588 9.94232 8.90083C9.81618 9.22577 9.62374 9.52088 9.37726 9.76736C9.13078 10.0138 8.83563 10.2063 8.51068 10.3324C8.18573 10.4586 7.83809 10.5156 7.48987 10.5H3.16986C1.38986 10.5 0.749863 10.06 0.109863 8.39V2.5C0.253075 2.02788 0.510515 1.59837 0.859375 1.24951C1.20823 0.900648 1.63774 0.643211 2.10986 0.5H7.99988ZM7.59985 8V3H2.59985V8H7.59985Z" fill="#4557DA"/>
<path d="M17.2499 25.5001C15.5899 24.8901 15.1299 24.2301 15.1299 22.4401C15.1299 21.0001 15.1299 19.5601 15.1299 18.1201C15.1144 17.7728 15.1712 17.426 15.2968 17.1018C15.4223 16.7775 15.6138 16.4829 15.8592 16.2366C16.1046 15.9903 16.3985 15.7976 16.7222 15.6708C17.046 15.5441 17.3925 15.4859 17.7399 15.5001H22.0699C23.8499 15.5001 24.4999 15.9501 25.0699 17.6101V23.3901C24.9639 23.9034 24.7123 24.3754 24.3452 24.7495C23.9781 25.1237 23.5111 25.3843 22.9999 25.5001H17.2499ZM22.6099 23.0001V18.0001H17.6099V23.0001H22.6099Z" fill="#4557DA"/>
<path d="M0.129883 13.9399C0.182354 13.867 0.229172 13.7901 0.269897 13.7099C0.39723 13.449 0.612094 13.2409 0.877075 13.1222C1.14206 13.0034 1.4403 12.9814 1.71985 13.0599C1.98307 13.1245 2.21573 13.2785 2.37805 13.4955C2.54037 13.7125 2.6223 13.9792 2.60986 14.2499C2.60986 15.3899 2.60986 16.5399 2.60986 17.6899C2.60986 18.8399 3.07989 19.2699 4.19989 19.2699H8.19989L8.3299 19.0899C7.8399 18.6499 7.32987 18.2299 6.86987 17.7699C6.63516 17.5352 6.5033 17.2169 6.5033 16.8849C6.5033 16.553 6.63516 16.2347 6.86987 15.9999C7.10459 15.7652 7.42294 15.6334 7.75488 15.6334C8.08682 15.6334 8.40518 15.7652 8.63989 15.9999C9.81989 17.1666 10.9965 18.3433 12.1699 19.5299C12.3159 19.6471 12.4337 19.7955 12.5146 19.9642C12.5956 20.133 12.6376 20.3178 12.6376 20.5049C12.6376 20.6921 12.5956 20.8769 12.5146 21.0456C12.4337 21.2144 12.3159 21.3628 12.1699 21.4799C10.9832 22.6799 9.7899 23.8699 8.5899 25.0499C8.3794 25.2259 8.15151 25.38 7.90985 25.5099H7.35986C6.20986 24.9199 6.06987 24.0699 6.98987 23.1499L8.38989 21.7399C6.75989 21.7399 5.27988 21.7399 3.80988 21.7399C3.1014 21.7469 2.40681 21.5434 1.81403 21.1554C1.22124 20.7673 0.756897 20.212 0.479858 19.5599C0.342413 19.2342 0.225542 18.9003 0.129883 18.5599V13.9399Z" fill="#4557DA"/>
<path d="M25.13 12.0595C24.85 12.3495 24.61 12.7595 24.26 12.9095C24.0773 12.9802 23.8798 13.0038 23.6855 12.9783C23.4913 12.9528 23.3066 12.8789 23.1484 12.7635C22.9901 12.648 22.8634 12.4947 22.7798 12.3175C22.6963 12.1404 22.6585 11.9451 22.67 11.7495C22.67 10.5995 22.67 9.45953 22.67 8.30953C22.67 7.15953 22.18 6.72953 21.07 6.72953H17.07L16.94 6.90953C17.43 7.34953 17.94 7.76953 18.4 8.22953C18.5472 8.33611 18.6691 8.47372 18.7571 8.63263C18.8452 8.79153 18.8973 8.96785 18.9097 9.14911C18.9221 9.33036 18.8945 9.51213 18.8289 9.68155C18.7633 9.85097 18.6613 10.0039 18.53 10.1295C18.4055 10.2553 18.2552 10.3527 18.0896 10.4152C17.924 10.4776 17.7468 10.5035 17.5702 10.4911C17.3936 10.4788 17.2218 10.4285 17.0664 10.3436C16.911 10.2588 16.7758 10.1414 16.67 9.99953C15.5033 8.83953 14.34 7.6762 13.18 6.50953C13.0265 6.39189 12.9022 6.2405 12.8167 6.06709C12.7311 5.89368 12.6865 5.7029 12.6865 5.50953C12.6865 5.31616 12.7311 5.12538 12.8167 4.95197C12.9022 4.77856 13.0265 4.62717 13.18 4.50953C14.29 3.38953 15.39 2.27953 16.52 1.17953C16.7907 0.935184 17.0818 0.714383 17.39 0.519531H17.94C19.09 1.10953 19.22 1.96953 18.31 2.88953L16.91 4.28953H21.43C22.3453 4.28082 23.2304 4.61632 23.91 5.22953C24.5559 5.84335 24.9931 6.64425 25.16 7.51953L25.13 12.0595Z" fill="#4557DA"/>
</svg>
