<svg width="26" height="26" viewBox="0 0 26 26" fill="none" xmlns="http://www.w3.org/2000/svg">
<path d="M10.29 0.510469C11.29 0.510469 12.29 0.510469 13.29 0.510469C13.5132 0.510169 13.7331 0.563589 13.9312 0.666214C14.1293 0.768839 14.2999 0.917653 14.4283 1.10008C14.5568 1.2825 14.6395 1.49318 14.6694 1.7143C14.6993 1.93542 14.6755 2.16048 14.6 2.37047C14.4892 2.6592 14.2884 2.90457 14.0272 3.07026C13.7661 3.23595 13.4585 3.31317 13.1501 3.29047C11.3401 3.29047 9.53003 3.29047 7.72003 3.29047C7.24729 3.29127 6.77788 3.36895 6.33008 3.52047C5.53753 3.80364 4.85041 4.32219 4.36072 5.00668C3.87103 5.69117 3.60215 6.50893 3.59009 7.35047V12.8005C3.61461 13.084 3.55574 13.3685 3.42072 13.619C3.28569 13.8695 3.08039 14.0751 2.83008 14.2105C2.62732 14.3132 2.40234 14.3643 2.17511 14.3591C1.94788 14.3539 1.72542 14.2928 1.52753 14.1809C1.32964 14.0691 1.16245 13.9102 1.04077 13.7182C0.919097 13.5262 0.846716 13.3072 0.830078 13.0805C0.830078 12.6705 0.830078 12.2505 0.830078 11.8305C0.830078 10.2005 0.830078 8.55047 0.830078 6.92047C0.899966 5.43996 1.47528 4.02815 2.46008 2.92047C3.44841 1.73982 4.81015 0.931933 6.32007 0.630468C6.81525 0.540434 7.31686 0.490274 7.82007 0.480469C8.64007 0.480469 9.45008 0.480469 10.2701 0.480469L10.29 0.510469Z" fill="black"/>
<path d="M17.47 1.87035C17.4739 1.68694 17.5141 1.50611 17.5882 1.33828C17.6623 1.17046 17.7689 1.01897 17.9019 0.892545C18.0348 0.766117 18.1914 0.667255 18.3627 0.601659C18.5341 0.536063 18.7167 0.50503 18.9001 0.51035C19.1744 0.51831 19.4402 0.607304 19.6641 0.766116C19.8879 0.924928 20.0597 1.14645 20.1578 1.40276C20.256 1.65906 20.2761 1.93869 20.2155 2.20638C20.155 2.47407 20.0166 2.71785 19.8177 2.90699C19.6188 3.09613 19.3684 3.22216 19.098 3.2692C18.8276 3.31624 18.5493 3.28218 18.2983 3.17132C18.0472 3.06045 17.8346 2.87775 17.6872 2.64623C17.5398 2.41471 17.4642 2.14474 17.47 1.87035Z" fill="black"/>
<path d="M25.7897 1.90078C25.7897 2.17527 25.7084 2.44361 25.5561 2.67197C25.4038 2.90033 25.1874 3.07849 24.9339 3.18399C24.6805 3.28948 24.4016 3.31758 24.1323 3.26476C23.8629 3.21193 23.6152 3.08053 23.4204 2.88714C23.2256 2.69374 23.0925 2.447 23.0377 2.17803C22.9829 1.90906 23.009 1.6299 23.1127 1.37574C23.2164 1.12158 23.393 0.903812 23.6202 0.749881C23.8475 0.595951 24.1153 0.512753 24.3898 0.510778C24.5731 0.509459 24.7549 0.544437 24.9247 0.613701C25.0945 0.682964 25.2489 0.785141 25.3791 0.914346C25.5092 1.04355 25.6125 1.19723 25.683 1.36653C25.7534 1.53583 25.7897 1.7174 25.7897 1.90078Z" fill="black"/>
<path d="M25.7901 7.44041C25.8064 7.63218 25.7827 7.82525 25.7205 8.00739C25.6583 8.18953 25.559 8.35677 25.4288 8.49851C25.2986 8.64026 25.1404 8.75341 24.9642 8.83082C24.788 8.90823 24.5976 8.9482 24.4051 8.9482C24.2127 8.9482 24.0223 8.90823 23.8461 8.83082C23.6699 8.75341 23.5117 8.64026 23.3815 8.49851C23.2513 8.35677 23.1519 8.18953 23.0897 8.00739C23.0275 7.82525 23.0038 7.63218 23.0201 7.44041C23.0038 7.24863 23.0275 7.05556 23.0897 6.87342C23.1519 6.69129 23.2513 6.52405 23.3815 6.38231C23.5117 6.24056 23.6699 6.1274 23.8461 6.05C24.0223 5.97259 24.2127 5.93262 24.4051 5.93262C24.5976 5.93262 24.788 5.97259 24.9642 6.05C25.1404 6.1274 25.2986 6.24056 25.4288 6.38231C25.559 6.52405 25.6583 6.69129 25.7205 6.87342C25.7827 7.05556 25.8064 7.24863 25.7901 7.44041Z" fill="black"/>
<path d="M25.7897 18.5602C25.7877 18.8346 25.7046 19.1024 25.5506 19.3297C25.3967 19.5569 25.1789 19.7335 24.9248 19.8372C24.6706 19.9409 24.3914 19.967 24.1225 19.9122C23.8535 19.8575 23.6068 19.7243 23.4134 19.5295C23.22 19.3347 23.0886 19.087 23.0357 18.8177C22.9829 18.5483 23.0111 18.2693 23.1166 18.0159C23.222 17.7625 23.4002 17.546 23.6285 17.3937C23.8569 17.2414 24.1253 17.1602 24.3998 17.1602C24.7693 17.1628 25.1228 17.3115 25.3832 17.5737C25.6436 17.836 25.7897 18.1906 25.7897 18.5602Z" fill="black"/>
<path d="M9.13984 24.1101C9.13783 24.3854 9.05407 24.654 8.89924 24.8816C8.7444 25.1093 8.52547 25.2859 8.27015 25.3889C8.01483 25.492 7.73465 25.5169 7.46515 25.4605C7.19566 25.4041 6.94898 25.2689 6.75641 25.0721C6.56384 24.8754 6.43404 24.6258 6.38349 24.3552C6.33294 24.0845 6.36392 23.8049 6.47248 23.5519C6.58104 23.2989 6.76232 23.0838 6.99329 22.9339C7.22426 22.784 7.49454 22.7062 7.76984 22.7101C8.13592 22.718 8.48432 22.8689 8.74042 23.1306C8.99652 23.3923 9.13992 23.7439 9.13984 24.1101Z" fill="black"/>
<path d="M0.819824 18.5501C0.819831 18.2748 0.901628 18.0056 1.05481 17.7769C1.20799 17.5481 1.42566 17.3699 1.68024 17.265C1.93481 17.1601 2.21478 17.1332 2.48468 17.1876C2.75458 17.2421 3.00224 17.3754 3.19623 17.5708C3.39022 17.7662 3.52184 18.0148 3.57434 18.2851C3.62684 18.5554 3.59783 18.8352 3.49109 19.089C3.38435 19.3428 3.20469 19.5592 2.97479 19.7107C2.7449 19.8623 2.47516 19.9421 2.19983 19.9401C1.83291 19.9375 1.48191 19.7899 1.22339 19.5295C0.964872 19.2691 0.819815 18.917 0.819824 18.5501Z" fill="black"/>
<path d="M18.85 22.7101C19.129 22.7062 19.4028 22.7857 19.6363 22.9385C19.8698 23.0912 20.0522 23.3103 20.1604 23.5675C20.2685 23.8247 20.2973 24.1083 20.2431 24.382C20.1888 24.6557 20.0541 24.9069 19.8561 25.1035C19.6581 25.3001 19.4059 25.433 19.1318 25.4852C18.8577 25.5374 18.5743 25.5066 18.3179 25.3966C18.0615 25.2866 17.8438 25.1025 17.6927 24.868C17.5416 24.6334 17.4641 24.359 17.47 24.0801C17.4826 23.719 17.6324 23.3764 17.8888 23.1218C18.1452 22.8673 18.4889 22.7201 18.85 22.7101Z" fill="black"/>
<path d="M25.7901 13C25.7901 13.3713 25.6426 13.7274 25.3801 13.9899C25.1175 14.2525 24.7614 14.4 24.3901 14.4C24.0222 14.3922 23.6716 14.2419 23.4123 13.9808C23.153 13.7196 23.0052 13.368 23.0001 13C22.9838 12.8082 23.0075 12.6151 23.0697 12.433C23.1319 12.2509 23.2312 12.0836 23.3614 11.9419C23.4916 11.8001 23.6498 11.687 23.826 11.6096C24.0023 11.5322 24.1927 11.4922 24.3851 11.4922C24.5776 11.4922 24.7679 11.5322 24.9441 11.6096C25.1204 11.687 25.2786 11.8001 25.4088 11.9419C25.539 12.0836 25.6384 12.2509 25.7006 12.433C25.7628 12.6151 25.7864 12.8082 25.7701 13H25.7901Z" fill="black"/>
<path d="M25.79 24.1209C25.7861 24.3061 25.7458 24.4887 25.6713 24.6583C25.5968 24.8279 25.4897 24.9811 25.356 25.1093C25.2222 25.2374 25.0646 25.338 24.892 25.4052C24.7194 25.4724 24.5352 25.5049 24.35 25.5009C23.9822 25.4779 23.6372 25.3147 23.386 25.045C23.1349 24.7753 22.9968 24.4195 23.0001 24.0509C23.0204 23.6901 23.1776 23.3506 23.4396 23.1016C23.7016 22.8526 24.0486 22.7129 24.41 22.7109C24.7796 22.7162 25.1321 22.8674 25.3906 23.1315C25.6491 23.3957 25.7927 23.7513 25.79 24.1209Z" fill="black"/>
<path d="M0.819963 24.0903C0.82254 23.7268 0.967379 23.3788 1.22347 23.1208C1.47955 22.8629 1.82651 22.7155 2.18996 22.7103C2.4689 22.7043 2.74323 22.7819 2.9778 22.9329C3.21237 23.084 3.39651 23.3017 3.50649 23.5581C3.61647 23.8145 3.64727 24.0979 3.59505 24.372C3.54282 24.6461 3.4099 24.8983 3.21333 25.0963C3.01677 25.2943 2.76552 25.4291 2.49184 25.4833C2.21815 25.5375 1.93453 25.5087 1.67732 25.4006C1.42012 25.2925 1.20106 25.11 1.0483 24.8765C0.895531 24.643 0.81604 24.3693 0.819963 24.0903Z" fill="black"/>
<path d="M14.69 24.1203C14.686 24.3956 14.6003 24.6635 14.4438 24.89C14.2873 25.1165 14.0671 25.2915 13.8111 25.3927C13.555 25.4939 13.2747 25.5167 13.0056 25.4584C12.7365 25.4 12.4908 25.2631 12.2997 25.0649C12.1086 24.8668 11.9806 24.6163 11.932 24.3453C11.8834 24.0743 11.9164 23.795 12.0268 23.5428C12.1371 23.2905 12.3199 23.0768 12.5519 22.9285C12.7839 22.7803 13.0548 22.7044 13.33 22.7103C13.6961 22.7207 14.0435 22.8742 14.2977 23.1378C14.5519 23.4014 14.6928 23.7541 14.69 24.1203Z" fill="black"/>
</svg>
