<svg width="21" height="22" viewBox="0 0 21 22" fill="none" xmlns="http://www.w3.org/2000/svg">
<path d="M20.9401 7.48988H18.6201V5.12988H20.9401V7.48988Z" fill="black"/>
<path d="M20.9401 10.9996H18.6201V8.63965H20.9401V10.9996Z" fill="black"/>
<path d="M20.9401 14.4897H18.6201V12.1396H20.9401V14.4897Z" fill="black"/>
<path d="M20.9401 17.9996H18.6201V15.6396H20.9401V17.9996Z" fill="black"/>
<path d="M4.58008 21.5004V19.1904H6.93018V21.5004H4.58008Z" fill="black"/>
<path d="M8.08008 21.5004V19.1904H10.4302V21.5004H8.08008Z" fill="black"/>
<path d="M11.5801 21.5004V19.1904H13.9401V21.5004H11.5801Z" fill="black"/>
<path d="M15.0898 21.5004V19.1904H17.4398V21.5004H15.0898Z" fill="black"/>
<path d="M18.5898 21.5004V19.1504H20.9398V21.5004H18.5898Z" fill="black"/>
<path d="M17.4301 0.5V18H0V0.5H17.4301Z" fill="black"/>
</svg>
