<svg width="28" height="22" viewBox="0 0 28 22" fill="none" xmlns="http://www.w3.org/2000/svg">
<path d="M15.3201 21.9204H1.50011C1.32827 21.9207 1.1592 21.8768 1.00927 21.7928C0.859344 21.7088 0.733606 21.5876 0.644158 21.4409C0.55471 21.2941 0.504616 21.1268 0.49865 20.9551C0.492684 20.7833 0.53105 20.613 0.6101 20.4604L7.85009 6.64038C7.93591 6.4792 8.06429 6.34459 8.22118 6.25116C8.37808 6.15773 8.55751 6.10904 8.74011 6.11038H22.5502C22.722 6.11002 22.891 6.15395 23.0409 6.23794C23.1908 6.32193 23.3166 6.44314 23.406 6.58987C23.4954 6.73661 23.5457 6.90392 23.5516 7.07566C23.5576 7.24741 23.5191 7.41779 23.4401 7.57038L16.2001 21.3804C16.1164 21.5419 15.9903 21.6776 15.8352 21.7727C15.6801 21.8679 15.502 21.9189 15.3201 21.9204ZM3.15014 19.9204H14.7101L20.9001 8.11038H9.34008L3.15014 19.9204Z" fill="black"/>
<path d="M26.5001 16.6598H12.6802C12.415 16.6598 12.1606 16.5545 11.973 16.367C11.7855 16.1794 11.6802 15.9251 11.6802 15.6598V1.83984C11.6802 1.57463 11.7855 1.32027 11.973 1.13274C12.1606 0.9452 12.415 0.839844 12.6802 0.839844H26.5001C26.7653 0.839844 27.0197 0.9452 27.2073 1.13274C27.3948 1.32027 27.5001 1.57463 27.5001 1.83984V15.6598C27.5001 15.9251 27.3948 16.1794 27.2073 16.367C27.0197 16.5545 26.7653 16.6598 26.5001 16.6598ZM13.6802 14.6598H25.5001V2.83984H13.6802V14.6598Z" fill="black"/>
</svg>
