<svg id="Layer_1" data-name="Layer 1" xmlns="http://www.w3.org/2000/svg" viewBox="0 0 100 100"><defs><style>.cls-1{fill:#435ea2;}</style></defs><title>canvaicon</title><path class="cls-1" d="M65.33,20c.29.56.79,1.11.81,1.67.08,2.75,0,5.5,0,8.25,0,1.22-.54,1.66-1.69,1.67-2,0-4,0-6,.14a2.8,2.8,0,0,0-3,2.93c-.11,2.25,0,4.51,0,6.93h8c2.15,0,2.33.19,2.34,2.37q0,4,0,8c0,1.59-.34,1.92-2,1.92h-8.4v1.52c0,7.5,0,15,0,22.5A6.92,6.92,0,0,1,54.67,80H43.73c-.9-.43-.86-1.23-.86-2q0-11.2,0-22.4V53.87c-2.5,0-4.85,0-7.19,0-1.58,0-1.85-.28-1.86-1.88,0-2.89,0-5.78,0-8.67,0-1.25.5-1.76,1.75-1.74,2.39,0,4.78,0,7.34,0,0-2.61,0-5.08,0-7.56C43,26.39,47.46,21.34,55,20.19a1.84,1.84,0,0,0,.49-.19Z"/></svg>