<svg id="Layer_1" data-name="Layer 1" xmlns="http://www.w3.org/2000/svg" xmlns:xlink="http://www.w3.org/1999/xlink" viewBox="0 0 100 100"><defs><style>.cls-1{fill:url(#linear-gradient);}.cls-2{fill:url(#linear-gradient-2);}.cls-3{fill:url(#linear-gradient-3);}</style><linearGradient id="linear-gradient" x1="80.18" y1="19.82" x2="19.94" y2="80.06" gradientUnits="userSpaceOnUse"><stop offset="0" stop-color="#7c00ff"/><stop offset="0.52" stop-color="#f82c99"/><stop offset="1" stop-color="#ff9b00"/></linearGradient><linearGradient id="linear-gradient-2" x1="80.14" y1="19.75" x2="19.89" y2="80" xlink:href="#linear-gradient"/><linearGradient id="linear-gradient-3" x1="80.28" y1="19.89" x2="20.03" y2="80.14" xlink:href="#linear-gradient"/></defs><title>canvaicon</title><g id="UvTvT1"><path class="cls-1" d="M14.05,50c0-5.25-.13-10.5,0-15.74.37-12.07,8-19.88,20-20.21,10.61-.29,21.24-.31,31.84,0,12.13.36,20,8.74,20,20.91Q86,50.1,86,65.21C85.88,77.56,77.87,85.8,65.51,86Q50,86.27,34.4,86c-11.84-.21-19.88-8.21-20.3-20-.19-5.3,0-10.61,0-15.92Zm6.62,0h0c0,5.12-.12,10.25,0,15.37.24,8.65,5.23,13.77,13.88,13.94q15.38.28,30.75,0c8.94-.16,14.33-5.89,14.35-14.8,0-9.89,0-19.77,0-29.65,0-8.42-5.53-14.16-13.89-14.28q-15.64-.21-31.29,0c-8.4.13-13.5,5.25-13.77,13.66C20.53,39.58,20.67,44.83,20.67,50.08Z"/><path class="cls-2" d="M68.56,49.84a18.59,18.59,0,1,1-18.7-18.51A18.64,18.64,0,0,1,68.56,49.84ZM61.93,50A11.95,11.95,0,1,0,50,61.86,12.05,12.05,0,0,0,61.93,50Z"/><path class="cls-3" d="M73.48,30.85A4.11,4.11,0,0,1,69.34,35a4.17,4.17,0,0,1-4.23-4.13,4.11,4.11,0,0,1,4.19-4.14A4.06,4.06,0,0,1,73.48,30.85Z"/></g></svg>