<svg id="Layer_1" data-name="Layer 1" xmlns="http://www.w3.org/2000/svg" xmlns:xlink="http://www.w3.org/1999/xlink" viewBox="0 0 100 100"><defs><style>.cls-1{fill:url(#linear-gradient);}.cls-2{fill:url(#linear-gradient-2);}.cls-3{fill:url(#linear-gradient-3);}.cls-4{fill:url(#linear-gradient-4);}.cls-5{fill:url(#linear-gradient-5);}.cls-6{fill:url(#linear-gradient-6);}</style><linearGradient id="linear-gradient" x1="75.43" y1="30.67" x2="28.22" y2="77.89" gradientUnits="userSpaceOnUse"><stop offset="0" stop-color="#7c00ff"/><stop offset="0.52" stop-color="#f82c99"/><stop offset="1" stop-color="#ff9b00"/></linearGradient><linearGradient id="linear-gradient-2" x1="72.49" y1="27.73" x2="25.28" y2="74.95" xlink:href="#linear-gradient"/><linearGradient id="linear-gradient-3" x1="84.39" y1="39.63" x2="37.18" y2="86.85" xlink:href="#linear-gradient"/><linearGradient id="linear-gradient-4" x1="67.17" y1="22.41" x2="19.95" y2="69.62" xlink:href="#linear-gradient"/><linearGradient id="linear-gradient-5" x1="54.37" y1="9.61" x2="7.16" y2="56.82" xlink:href="#linear-gradient"/><linearGradient id="linear-gradient-6" x1="51.39" y1="6.63" x2="4.18" y2="53.85" xlink:href="#linear-gradient"/></defs><title>canvaicon</title><g id="cS1V9j"><path class="cls-1" d="M82,51.94c-.4,9.61-5.3,18.67-15,25-1.67,1.1-3.24.65-3.71-1-.4-1.42.47-2.17,1.53-2.85A27.43,27.43,0,0,0,77,55.42c3.49-15.81-8.39-31.75-24.54-32.9-.83-.06-1.65-.09-2.48-.17A2,2,0,0,1,48,20.15,2,2,0,0,1,50.25,18c3.43.46,7,.71,10.23,1.78C73.39,24,82.18,36.53,82,51.94Z"/><path class="cls-2" d="M35.43,52.31V47.85H47.94V35.35h4.45V47.73H64.85v4.43H52.46V64.71h-4.4V52.31Z"/><path class="cls-3" d="M50.15,82a35.07,35.07,0,0,1-14.21-3.51c-1.81-.89-2.39-2-1.77-3.29s1.86-1.58,3.65-.7a27.36,27.36,0,0,0,17.57,2.38c.29-.06.59-.09.88-.15A2.1,2.1,0,0,1,59,78.48,2.06,2.06,0,0,1,57.15,81C54.83,81.43,52.49,81.68,50.15,82Z"/><path class="cls-4" d="M32.19,71.51c-.58.71-1,1.63-1.57,1.83A2.8,2.8,0,0,1,28.24,73a20.62,20.62,0,0,1-4.07-4.65,100.6,100.6,0,0,1-4.82-10.17c-.71-1.69-.05-3,1.25-3.33s2.44.29,2.92,2.06a28,28,0,0,0,7.39,12.7A14.42,14.42,0,0,1,32.19,71.51Z"/><path class="cls-5" d="M18,46.32c1-3.23,2-6.47,3.12-9.67a2,2,0,0,1,3-1.21c1.23.59,1.4,1.68,1,3q-1.3,4.19-2.34,8.45c-.34,1.4-1,2.36-2.46,2.2S18.27,47.89,18,46.32Z"/><path class="cls-6" d="M32.54,27.54A3.18,3.18,0,0,1,30,30.43a2.17,2.17,0,0,1-2.35-2.08,3.32,3.32,0,0,1,2.6-2.92A2.2,2.2,0,0,1,32.54,27.54Z"/></g></svg>