<svg id="Layer_1" data-name="Layer 1" xmlns="http://www.w3.org/2000/svg" viewBox="0 0 100 100"><defs><style>.cls-1{fill:#4e97fc;}</style></defs><title>canvaicon</title><path class="cls-1" d="M48.25,18h3.5a3.45,3.45,0,0,0,.54.11A29.64,29.64,0,0,1,63.51,21q15.27,7.52,18.12,24.33c.16,1,.25,1.93.37,2.9v3.5a3.45,3.45,0,0,0-.11.54A29.5,29.5,0,0,1,79,63.51C74,73.68,65.86,79.75,54.65,81.63c-1,.16-1.93.25-2.9.37h-3.5a3.45,3.45,0,0,0-.54-.11A29.55,29.55,0,0,1,36.55,79Q21.22,71.5,18.37,54.65c-.17-1-.25-1.93-.37-2.9v-3.5a4.21,4.21,0,0,0,.11-.6A29.48,29.48,0,0,1,21,36.44c5-10.15,13.13-16.2,24.31-18.07C46.31,18.21,47.28,18.12,48.25,18ZM79,50A29,29,0,1,0,50,79,29,29,0,0,0,79,50Z"/><path class="cls-1" d="M66,62.37a6,6,0,0,1-11.9.41,1.07,1.07,0,0,0-.7-1Q47.53,58.92,41.64,56a1,1,0,0,0-1,0A5.8,5.8,0,0,1,34,55.77a5.86,5.86,0,0,1-2.33-6.11,5.78,5.78,0,0,1,4.8-4.6,5.46,5.46,0,0,1,4.29.88.9.9,0,0,0,1.06.05q5.82-2.87,11.67-5.69a.85.85,0,0,0,.57-.88,6,6,0,0,1,11.82-1.06,5.66,5.66,0,0,1-2.35,5.93,5.72,5.72,0,0,1-6.47.37,1,1,0,0,0-1.07,0c-4,2-8,3.91-12,5.88a1,1,0,0,0-.49.6c0,.15.26.42.47.52,3.95,2,7.92,3.87,11.88,5.82a.78.78,0,0,0,.89-.07,5.78,5.78,0,0,1,6.11-.25A5.85,5.85,0,0,1,66,62.37Z"/></svg>