<svg id="Layer_1" data-name="Layer 1" xmlns="http://www.w3.org/2000/svg" viewBox="0 0 100 100"><defs><style>.cls-1{fill:#1cbde4;}</style></defs><title>canvaicon</title><path class="cls-1" d="M13,73.47a31.8,31.8,0,0,0,22.19-6.39C28.3,66.31,23.65,63,21.12,56.7l6.12-.27c-7.08-2.73-11.12-7.57-11.61-15.21L21.94,43c-6.53-7.83-7.82-13.92-4.06-20.44,8.25,9.6,18.62,15,31.17,15.86a47,47,0,0,1,.35-6.58,15.18,15.18,0,0,1,25-8.35,2.35,2.35,0,0,0,2.63.62c2.63-.95,5.24-1.92,7.93-2.91-1,3.23-3.18,5.71-5.83,8.06l7.59-2,.3.28c-2,2-3.84,4.18-6,6a3.73,3.73,0,0,0-1.39,3.22c-.58,16-7.06,29-20.9,37.28-14.49,8.66-29.56,8.35-44.42.3C14,74.11,13.68,73.9,13,73.47Z"/></svg>