<?xml version="1.0" standalone="no"?>
<!DOCTYPE svg PUBLIC "-//W3C//DTD SVG 20010904//EN"
 "http://www.w3.org/TR/2001/REC-SVG-20010904/DTD/svg10.dtd">
<svg version="1.0" xmlns="http://www.w3.org/2000/svg"
 width="256.000000pt" height="256.000000pt" viewBox="0 0 256.000000 256.000000"
 preserveAspectRatio="xMidYMid meet">
<metadata>
Created by potrace 1.16, written by Peter Selinger 2001-2019
</metadata>
<g transform="translate(0.000000,256.000000) scale(0.100000,-0.100000)"
fill="#4557DA" stroke="none">
<path d="M379 2531 l-29 -29 0 -426 0 -426 -48 0 c-62 0 -111 -27 -139 -76
-22 -39 -23 -43 -23 -444 0 -366 2 -408 18 -440 26 -52 74 -80 138 -80 l54 0
0 -276 0 -276 29 -29 29 -29 872 0 872 0 29 29 29 29 0 276 0 276 54 0 c64 0
112 28 138 80 16 32 18 74 18 440 0 401 -1 405 -23 444 -28 49 -77 76 -139 76
l-48 0 0 163 -1 162 -256 293 -256 292 -645 0 -644 0 -29 -29z m1231 -343 c0
-229 2 -264 17 -280 15 -16 36 -18 245 -18 l228 0 0 -120 0 -120 -820 0 -820
0 0 400 0 400 575 0 575 0 0 -262z m-622 -698 c45 -6 93 -15 106 -20 l23 -8
-16 -62 c-15 -58 -17 -61 -41 -55 -174 45 -315 7 -369 -100 -22 -41 -26 -63
-26 -130 0 -69 4 -87 28 -130 44 -79 110 -115 214 -115 83 0 83 0 83 96 l0 84
-60 0 -60 0 0 60 0 60 135 0 135 0 0 -194 0 -194 -67 -16 c-97 -25 -178 -30
-263 -17 -176 27 -283 129 -310 295 -36 227 109 414 345 446 33 4 60 8 60 9 0
0 38 -4 83 -9z m462 -370 l0 -370 -80 0 -80 0 0 370 0 370 80 0 80 0 0 -370z
m600 305 l0 -65 -145 0 -145 0 0 -90 0 -90 135 0 135 0 0 -65 0 -65 -135 0
-135 0 0 -150 0 -150 -80 0 -80 0 0 370 0 370 225 0 225 0 0 -65z m50 -1055
l0 -240 -820 0 -820 0 0 240 0 240 820 0 820 0 0 -240z"/>
</g>
</svg>
