<svg id="Layer_1" data-name="Layer 1" xmlns="http://www.w3.org/2000/svg" viewBox="0 0 240.86 264.15"  width="24px" height="24px" fill="#4557DA"><defs></defs><title>iconinstagramshopping</title><g id="zFHXCy"><path class="cls-1" d="M487.22,463.4c0-35.92,29.72-54.84,54.12-55,23.8-.19,54.61,17.71,55.07,55h20.17c21.83,0,37.06,13.48,38.83,35.26s2.75,43.6,4.05,65.41c.65,10.84,1.49,21.67,1.79,32.52,1.06,37.37-23.35,67.94-59.58,74.66a80.47,80.47,0,0,1-14.3,1.18q-46.95.2-93.91.15c-37.77,0-66.43-24.06-72.35-61.29-1.11-7-.62-14.37-.21-21.52,1.77-30.68,3.79-61.34,5.69-92A36.48,36.48,0,0,1,462,463.43C470.29,463.24,478.61,463.4,487.22,463.4Zm53.1,187.13v.12c15.8,0,31.59.05,47.38,0a59.66,59.66,0,0,0,10.95-.77c25-4.87,42.34-26.15,41.2-51.84-1.43-32.11-3.68-64.18-5.69-96.26-.74-11.8-6.41-16.95-18.14-17q-56.06,0-112.11,0c-13.4,0-26.8-.08-40.19,0-8.61.08-15.16,6-15.72,14.06-.67,9.84-1.15,19.7-1.74,29.55-1.31,21.81-2.07,43.67-4.08,65.41-3.26,35.43,23.58,58.27,52,56.84C509.55,649.9,525,650.53,540.32,650.53ZM508.85,463.14h65.78c.49-11.76-4.11-20.81-13.53-27.11-11.83-7.91-24.39-8.37-36.72-1.27C513.79,440.87,508.4,450.27,508.85,463.14Z" transform="translate(-420.43 -408.37)"/><path class="cls-1" d="M541.9,557c-27-.37-49.73-18.92-53.86-44.33a36,36,0,0,1-.43-6.31c.12-6.17,4.38-10.68,10.11-10.86a10.35,10.35,0,0,1,11,10c.79,14.2,8.58,23,21.4,27.37,13.49,4.59,25.89,1.93,36.37-8a26.25,26.25,0,0,0,8.25-18c.47-7.45,4.82-11.78,11.31-11.42,6.27.36,10.22,5.44,9.94,12.78-.83,21.45-17.72,41-40.34,46.5C551.13,555.81,546.47,556.22,541.9,557Z" transform="translate(-420.43 -408.37)"/></g></svg>